<?xml version="1.0" encoding="UTF-8"?>
<!DOCTYPE svg PUBLIC "-//W3C//DTD SVG 1.1//EN" "http://www.w3.org/Graphics/SVG/1.1/DTD/svg11.dtd">
<svg xmlns="http://www.w3.org/2000/svg" version="1.1" width="331px" height="244px" style="shape-rendering:geometricPrecision; text-rendering:geometricPrecision; image-rendering:optimizeQuality; fill-rule:evenodd; clip-rule:evenodd" xmlns:xlink="http://www.w3.org/1999/xlink">
<g><path style="opacity:0.008" fill="#dbf4f9" d="M 111.5,77.5 C 107.958,77.1872 104.625,77.5206 101.5,78.5C 101.167,78.5 100.833,78.5 100.5,78.5C 99.1667,78.5 97.8333,78.5 96.5,78.5C 99.1864,77.0092 102.186,76.3425 105.5,76.5C 107.696,76.5046 109.696,76.838 111.5,77.5 Z"/></g>
<g><path style="opacity:0.357" fill="#cdebf5" d="M 121.5,80.5 C 118.341,79.6693 115.341,78.6693 112.5,77.5C 112.435,77.0618 112.601,76.7284 113,76.5C 115.447,77.4056 117.947,78.2389 120.5,79C 121.056,79.3826 121.389,79.8826 121.5,80.5 Z"/></g>
<g><path style="opacity:1" fill="#6ea0bc" d="M 168.5,85.5 C 168.5,88.8333 168.5,92.1667 168.5,95.5C 167.834,91.9792 167.167,88.3125 166.5,84.5C 165.183,82.8409 163.517,81.6743 161.5,81C 157.294,80.7392 153.127,80.2392 149,79.5C 145.224,80.3942 141.39,80.7275 137.5,80.5C 137.833,79.8333 138.167,79.1667 138.5,78.5C 147.238,75.6389 155.904,76.1389 164.5,80C 166.464,81.451 167.797,83.2843 168.5,85.5 Z"/></g>
<g><path style="opacity:0.82" fill="#a9ccda" d="M 221.5,77.5 C 219.898,79.0739 217.898,79.7406 215.5,79.5C 217.102,77.9261 219.102,77.2594 221.5,77.5 Z"/></g>
<g><path style="opacity:1" fill="#3785b0" d="M 100.5,78.5 C 100.833,78.5 101.167,78.5 101.5,78.5C 105.686,78.433 109.519,79.433 113,81.5C 113.333,81.1667 113.667,80.8333 114,80.5C 118.277,81.7789 121.277,84.4456 123,88.5C 123.499,93.1548 123.666,97.8215 123.5,102.5C 120.167,102.5 116.833,102.5 113.5,102.5C 113.777,97.7668 113.443,93.1001 112.5,88.5C 108.585,84.6233 104.752,84.6233 101,88.5C 100.333,92.8333 100.333,97.1667 101,101.5C 102.461,103.593 104.294,105.26 106.5,106.5C 107.5,107.167 108.5,107.833 109.5,108.5C 110.419,111.089 112.086,113.089 114.5,114.5C 114.738,116.404 115.738,117.738 117.5,118.5C 117.738,120.404 118.738,121.738 120.5,122.5C 120.427,124.027 121.094,125.027 122.5,125.5C 123.338,125.842 123.672,126.508 123.5,127.5C 125.283,135.688 125.95,144.021 125.5,152.5C 124.883,152.389 124.383,152.056 124,151.5C 123.51,152.793 123.343,154.127 123.5,155.5C 122.5,155.5 121.5,155.5 120.5,155.5C 120.5,156.5 120.5,157.5 120.5,158.5C 118.632,159.263 116.965,160.263 115.5,161.5C 115.167,161.5 114.833,161.5 114.5,161.5C 107.378,161.825 100.378,161.159 93.5,159.5C 92.7377,157.738 91.4044,156.738 89.5,156.5C 89.4431,155.391 89.1098,154.391 88.5,153.5C 88.5,147.167 88.5,140.833 88.5,134.5C 92.5,134.5 96.5,134.5 100.5,134.5C 100.334,139.511 100.501,144.511 101,149.5C 101.417,150.756 102.25,151.423 103.5,151.5C 105.792,151.756 107.959,151.423 110,150.5C 110.81,146.642 110.643,142.976 109.5,139.5C 109.88,137.302 109.213,135.635 107.5,134.5C 106.326,133.486 105.66,132.153 105.5,130.5C 105.573,128.973 104.906,127.973 103.5,127.5C 101.937,126.055 100.604,124.389 99.5,122.5C 99.2624,120.596 98.2624,119.262 96.5,118.5C 95.5,118.167 94.8333,117.5 94.5,116.5C 94.4431,115.391 94.1098,114.391 93.5,113.5C 91.4995,110.832 89.9995,107.832 89,104.5C 88.3333,98.5 88.3333,92.5 89,86.5C 91.3858,85.2367 93.2192,83.4033 94.5,81C 96.9739,80.9633 98.9739,80.13 100.5,78.5 Z"/></g>
<g><path style="opacity:1" fill="#3585b0" d="M 188.5,104.5 C 187.833,104.5 187.5,104.833 187.5,105.5C 186.176,110.177 185.176,115.011 184.5,120C 185.654,132.091 185.821,144.258 185,156.5C 182.196,158.344 179.03,159.011 175.5,158.5C 174.598,140.185 174.264,121.852 174.5,103.5C 171.918,103.025 169.918,103.692 168.5,105.5C 168.833,121.181 168.499,136.848 167.5,152.5C 166.193,153.816 164.693,154.816 163,155.5C 162.51,156.793 162.343,158.127 162.5,159.5C 160.847,159.66 159.514,160.326 158.5,161.5C 151.052,161.848 143.719,161.182 136.5,159.5C 135.738,157.738 134.404,156.738 132.5,156.5C 131.662,156.158 131.328,155.492 131.5,154.5C 130.531,131.866 130.198,109.2 130.5,86.5C 130.328,85.5084 130.662,84.8417 131.5,84.5C 133.246,82.7484 135.246,81.4151 137.5,80.5C 141.39,80.7275 145.224,80.3942 149,79.5C 153.127,80.2392 157.294,80.7392 161.5,81C 163.517,81.6743 165.183,82.8409 166.5,84.5C 167.167,88.3125 167.834,91.9792 168.5,95.5C 168.833,95.5 169.167,95.5 169.5,95.5C 170.833,95.5 172.167,95.5 173.5,95.5C 173.616,92.1401 173.949,88.8067 174.5,85.5C 175.906,85.0269 176.573,84.0269 176.5,82.5C 177.5,82.1667 178.167,81.5 178.5,80.5C 179.167,80.5 179.833,80.5 180.5,80.5C 186.6,80.6234 192.6,79.9568 198.5,78.5C 198.5,80.5 198.5,82.5 198.5,84.5C 189.034,83.1276 185.367,86.961 187.5,96C 191.152,96.4986 194.818,96.6653 198.5,96.5C 198.5,98.8333 198.5,101.167 198.5,103.5C 194.958,103.187 191.625,103.521 188.5,104.5 Z M 152.5,88.5 C 153.642,108.123 153.809,127.79 153,147.5C 151.658,150.669 149.492,151.335 146.5,149.5C 146.333,129.497 146.5,109.497 147,89.5C 148.699,88.5939 150.533,88.2606 152.5,88.5 Z"/></g>
<g><path style="opacity:0.463" fill="#c3e3ec" d="M 181.5,78.5 C 181.167,79.1667 180.833,79.8333 180.5,80.5C 179.833,80.5 179.167,80.5 178.5,80.5C 178.973,79.0937 179.973,78.427 181.5,78.5 Z"/></g>
<g><path style="opacity:1" fill="#4a86a6" d="M 185.5,77.5 C 190.167,77.5 194.833,77.5 199.5,77.5C 199.5,80.5 199.5,83.5 199.5,86.5C 196.123,86.0679 193.123,86.7345 190.5,88.5C 189.883,88.6107 189.383,88.944 189,89.5C 188.505,91.4727 188.338,93.4727 188.5,95.5C 192.167,95.5 195.833,95.5 199.5,95.5C 199.5,98.5 199.5,101.5 199.5,104.5C 195.833,104.5 192.167,104.5 188.5,104.5C 191.625,103.521 194.958,103.187 198.5,103.5C 198.5,101.167 198.5,98.8333 198.5,96.5C 194.818,96.6653 191.152,96.4986 187.5,96C 185.367,86.961 189.034,83.1276 198.5,84.5C 198.5,82.5 198.5,80.5 198.5,78.5C 192.6,79.9568 186.6,80.6234 180.5,80.5C 180.833,79.8333 181.167,79.1667 181.5,78.5C 182.568,77.5655 183.901,77.2322 185.5,77.5 Z"/></g>
<g><path style="opacity:1" fill="#3886b0" d="M 246.5,152.5 C 244.824,153.183 244.157,154.517 244.5,156.5C 243.167,156.5 241.833,156.5 240.5,156.5C 240.5,157.833 240.5,159.167 240.5,160.5C 238.958,161.301 237.292,161.634 235.5,161.5C 229.471,161.575 223.471,161.241 217.5,160.5C 216.101,159.11 214.434,158.11 212.5,157.5C 209.888,155.948 208.555,153.614 208.5,150.5C 208.5,130.167 208.5,109.833 208.5,89.5C 208.232,87.901 208.566,86.5676 209.5,85.5C 210.833,84.5 212.167,83.5 213.5,82.5C 222.081,79.3469 230.748,79.1802 239.5,82C 241.754,83.3767 243.92,84.8767 246,86.5C 246.5,108.497 246.667,130.497 246.5,152.5 Z M 224.5,146.5 C 225.153,127.8 225.153,109.134 224.5,90.5C 226.419,88.4776 228.586,88.1443 231,89.5C 231.667,109.5 231.667,129.5 231,149.5C 227.495,151.255 225.328,150.255 224.5,146.5 Z"/></g>
<g><path style="opacity:0.11" fill="#d5f0fb" d="M 178.5,80.5 C 178.167,81.5 177.5,82.1667 176.5,82.5C 176.5,81.1667 177.167,80.5 178.5,80.5 Z"/></g>
<g><path style="opacity:0.851" fill="#9cc1d2" d="M 241.5,79.5 C 242.71,79.9321 243.71,80.5987 244.5,81.5C 242.821,81.7148 241.821,81.0481 241.5,79.5 Z"/></g>
<g><path style="opacity:0.055" fill="#ddf5f8" d="M 93.5,79.5 C 90.5416,81.4033 88.5416,84.0699 87.5,87.5C 87.1667,87.5 86.8333,87.5 86.5,87.5C 86.7076,82.9598 89.0409,80.2931 93.5,79.5 Z"/></g>
<g><path style="opacity:0.725" fill="#accedd" d="M 215.5,79.5 C 214.833,80.5 214.167,81.5 213.5,82.5C 212.167,83.5 210.833,84.5 209.5,85.5C 210.5,82.5 212.5,80.5 215.5,79.5 Z"/></g>
<g><path style="opacity:0.824" fill="#a5c6d6" d="M 244.5,81.5 C 246.262,82.2623 247.262,83.5956 247.5,85.5C 245.738,84.7377 244.738,83.4044 244.5,81.5 Z"/></g>
<g><path style="opacity:0.349" fill="#b9d9e5" d="M 138.5,78.5 C 138.167,79.1667 137.833,79.8333 137.5,80.5C 135.246,81.4151 133.246,82.7484 131.5,84.5C 132.578,81.0922 134.911,79.0922 138.5,78.5 Z"/></g>
<g><path style="opacity:1" fill="#4885a5" d="M 96.5,78.5 C 97.8333,78.5 99.1667,78.5 100.5,78.5C 98.9739,80.13 96.9739,80.9633 94.5,81C 93.2192,83.4033 91.3858,85.2367 89,86.5C 88.3333,92.5 88.3333,98.5 89,104.5C 89.9995,107.832 91.4995,110.832 93.5,113.5C 92.8333,113.167 92.1667,112.833 91.5,112.5C 90.5,112.167 89.8333,111.5 89.5,110.5C 89.573,108.973 88.9063,107.973 87.5,107.5C 87.5,100.833 87.5,94.1667 87.5,87.5C 88.5416,84.0699 90.5416,81.4033 93.5,79.5C 94.391,78.8902 95.391,78.5569 96.5,78.5 Z"/></g>
<g><path style="opacity:0.243" fill="#bfe0eb" d="M 123.5,82.5 C 124.906,82.9731 125.573,83.9731 125.5,85.5C 124.094,85.0269 123.427,84.0269 123.5,82.5 Z"/></g>
<g><path style="opacity:0.361" fill="#b1d2e0" d="M 176.5,82.5 C 176.573,84.0269 175.906,85.0269 174.5,85.5C 174.427,83.9731 175.094,82.9731 176.5,82.5 Z"/></g>
<g><path style="opacity:0.502" fill="#c0dde7" d="M 185.5,77.5 C 190.567,76.1757 195.734,76.1757 201,77.5C 201.667,80.5 201.667,83.5 201,86.5C 197.6,87.5396 194.1,88.2062 190.5,88.5C 193.123,86.7345 196.123,86.0679 199.5,86.5C 199.5,83.5 199.5,80.5 199.5,77.5C 194.833,77.5 190.167,77.5 185.5,77.5 Z"/></g>
<g><path style="opacity:1" fill="#4386aa" d="M 101.5,78.5 C 104.625,77.5206 107.958,77.1872 111.5,77.5C 111.833,77.5 112.167,77.5 112.5,77.5C 115.341,78.6693 118.341,79.6693 121.5,80.5C 122.5,80.8333 123.167,81.5 123.5,82.5C 123.427,84.0269 124.094,85.0269 125.5,85.5C 125.5,85.8333 125.5,86.1667 125.5,86.5C 125.5,92.5 125.5,98.5 125.5,104.5C 120.833,104.5 116.167,104.5 111.5,104.5C 111.821,99.3054 111.487,94.3054 110.5,89.5C 109.688,88.0069 108.355,87.3402 106.5,87.5C 105.228,87.5698 104.062,87.9032 103,88.5C 102.188,92.6888 102.355,96.6888 103.5,100.5C 104.488,101.795 105.488,103.128 106.5,104.5C 106.5,105.167 106.5,105.833 106.5,106.5C 104.294,105.26 102.461,103.593 101,101.5C 100.333,97.1667 100.333,92.8333 101,88.5C 104.752,84.6233 108.585,84.6233 112.5,88.5C 113.443,93.1001 113.777,97.7668 113.5,102.5C 116.833,102.5 120.167,102.5 123.5,102.5C 123.666,97.8215 123.499,93.1548 123,88.5C 121.277,84.4456 118.277,81.7789 114,80.5C 113.667,80.8333 113.333,81.1667 113,81.5C 109.519,79.433 105.686,78.433 101.5,78.5 Z"/></g>
<g><path style="opacity:0.01" fill="#e0fafd" d="M 110.5,89.5 C 110.5,91.8333 110.5,94.1667 110.5,96.5C 109.686,94.369 109.186,92.0356 109,89.5C 107.612,88.4464 106.112,88.2797 104.5,89C 103.54,92.73 103.207,96.5633 103.5,100.5C 102.355,96.6888 102.188,92.6888 103,88.5C 104.062,87.9032 105.228,87.5698 106.5,87.5C 108.355,87.3402 109.688,88.0069 110.5,89.5 Z"/></g>
<g><path style="opacity:0.008" fill="#e8fefe" d="M 148.5,87.5 C 150.099,87.2322 151.432,87.5655 152.5,88.5C 150.533,88.2606 148.699,88.5939 147,89.5C 146.5,109.497 146.333,129.497 146.5,149.5C 145.503,130.341 145.17,111.007 145.5,91.5C 145.088,89.0274 146.088,87.6941 148.5,87.5 Z"/></g>
<g><path style="opacity:0.841" fill="#7baac0" d="M 168.5,85.5 C 169.21,87.8927 169.877,90.3927 170.5,93C 169.944,93.3826 169.611,93.8826 169.5,94.5C 169.5,94.8333 169.5,95.1667 169.5,95.5C 169.167,95.5 168.833,95.5 168.5,95.5C 168.5,92.1667 168.5,88.8333 168.5,85.5 Z"/></g>
<g><path style="opacity:0.22" fill="#bddfeb" d="M 174.5,85.5 C 173.949,88.8067 173.616,92.1401 173.5,95.5C 172.167,95.5 170.833,95.5 169.5,95.5C 169.5,95.1667 169.5,94.8333 169.5,94.5C 170.5,94.5 171.5,94.5 172.5,94.5C 172.215,91.1709 172.882,88.1709 174.5,85.5 Z"/></g>
<g><path style="opacity:0.624" fill="#b0cedb" d="M 86.5,87.5 C 86.8333,87.5 87.1667,87.5 87.5,87.5C 87.5,94.1667 87.5,100.833 87.5,107.5C 85.2389,101.064 84.9056,94.3969 86.5,87.5 Z"/></g>
<g><path style="opacity:0.019" fill="#dffafc" d="M 190.5,88.5 C 189.85,90.4352 189.517,92.4352 189.5,94.5C 193.042,94.1872 196.375,94.5206 199.5,95.5C 195.833,95.5 192.167,95.5 188.5,95.5C 188.338,93.4727 188.505,91.4727 189,89.5C 189.383,88.944 189.883,88.6107 190.5,88.5 Z"/></g>
<g><path style="opacity:1" fill="#4788ab" d="M 148.5,87.5 C 153.935,86.0662 156.768,88.3995 157,94.5C 157.667,111.167 157.667,127.833 157,144.5C 156.137,151.87 152.137,154.203 145,151.5C 144.171,131.329 144.338,111.329 145.5,91.5C 145.17,111.007 145.503,130.341 146.5,149.5C 148.011,151.441 150.011,151.941 152.5,151C 153.126,150.25 153.626,149.416 154,148.5C 154.667,128.833 154.667,109.167 154,89.5C 153.617,88.944 153.117,88.6107 152.5,88.5C 151.432,87.5655 150.099,87.2322 148.5,87.5 Z"/></g>
<g><path style="opacity:0.403" fill="#aed6ea" d="M 152.5,88.5 C 153.117,88.6107 153.617,88.944 154,89.5C 154.667,109.167 154.667,128.833 154,148.5C 153.626,149.416 153.126,150.25 152.5,151C 150.011,151.941 148.011,151.441 146.5,149.5C 149.492,151.335 151.658,150.669 153,147.5C 153.809,127.79 153.642,108.123 152.5,88.5 Z"/></g>
<g><path style="opacity:0.766" fill="#9bbfcf" d="M 125.5,86.5 C 126.687,88.7402 127.354,91.2402 127.5,94C 126.483,97.2109 126.483,100.378 127.5,103.5C 127.023,104.478 126.357,105.311 125.5,106C 120.778,106.777 116.111,106.61 111.5,105.5C 110.516,102.572 110.183,99.5719 110.5,96.5C 110.5,94.1667 110.5,91.8333 110.5,89.5C 111.487,94.3054 111.821,99.3054 111.5,104.5C 116.167,104.5 120.833,104.5 125.5,104.5C 125.5,98.5 125.5,92.5 125.5,86.5 Z"/></g>
<g><path style="opacity:0.576" fill="#b6d9e6" d="M 106.5,104.5 C 108.262,105.262 109.262,106.596 109.5,108.5C 108.5,107.833 107.5,107.167 106.5,106.5C 106.5,105.833 106.5,105.167 106.5,104.5 Z"/></g>
<g><path style="opacity:0.715" fill="#8bb3c4" d="M 199.5,95.5 C 200.117,95.6107 200.617,95.944 201,96.5C 201.667,99.1667 201.667,101.833 201,104.5C 199.644,105.38 198.144,105.714 196.5,105.5C 193.833,105.5 191.167,105.5 188.5,105.5C 188.5,123.833 188.5,142.167 188.5,160.5C 188.389,161.117 188.056,161.617 187.5,162C 182.648,162.815 177.981,162.648 173.5,161.5C 173.5,161.167 173.5,160.833 173.5,160.5C 178.167,160.5 182.833,160.5 187.5,160.5C 187.5,142.167 187.5,123.833 187.5,105.5C 187.5,104.833 187.833,104.5 188.5,104.5C 192.167,104.5 195.833,104.5 199.5,104.5C 199.5,101.5 199.5,98.5 199.5,95.5 Z"/></g>
<g><path style="opacity:0.011" fill="#e4feff" d="M 196.5,105.5 C 194.393,106.468 192.059,106.802 189.5,106.5C 189.83,124.674 189.497,142.674 188.5,160.5C 188.5,142.167 188.5,123.833 188.5,105.5C 191.167,105.5 193.833,105.5 196.5,105.5 Z"/></g>
<g><path style="opacity:0.483" fill="#b2d3df" d="M 173.5,160.5 C 173.5,160.833 173.5,161.167 173.5,161.5C 172.733,160.828 172.066,159.995 171.5,159C 171.304,142.054 171.638,125.054 172.5,108C 172.106,105.72 171.106,105.22 169.5,106.5C 169.5,106.167 169.5,105.833 169.5,105.5C 170.542,104.209 171.708,104.209 173,105.5C 173.5,123.83 173.667,142.164 173.5,160.5 Z"/></g>
<g><path style="opacity:0.999" fill="#528dac" d="M 241.5,79.5 C 241.821,81.0481 242.821,81.7148 244.5,81.5C 244.738,83.4044 245.738,84.7377 247.5,85.5C 247.5,107.833 247.5,130.167 247.5,152.5C 247.167,152.5 246.833,152.5 246.5,152.5C 246.667,130.497 246.5,108.497 246,86.5C 243.92,84.8767 241.754,83.3767 239.5,82C 230.748,79.1802 222.081,79.3469 213.5,82.5C 214.167,81.5 214.833,80.5 215.5,79.5C 217.898,79.7406 219.898,79.0739 221.5,77.5C 228.485,75.9317 235.151,76.5984 241.5,79.5 Z"/></g>
<g><path style="opacity:0.098" fill="#d0edf7" d="M 87.5,107.5 C 88.9063,107.973 89.573,108.973 89.5,110.5C 88.0937,110.027 87.427,109.027 87.5,107.5 Z"/></g>
<g><path style="opacity:0.008" fill="#d0edf4" d="M 91.5,112.5 C 92.1667,112.833 92.8333,113.167 93.5,113.5C 94.1098,114.391 94.4431,115.391 94.5,116.5C 92.7376,115.738 91.7376,114.404 91.5,112.5 Z"/></g>
<g><path style="opacity:0.106" fill="#c3e3ee" d="M 109.5,108.5 C 111.914,109.911 113.581,111.911 114.5,114.5C 112.086,113.089 110.419,111.089 109.5,108.5 Z"/></g>
<g><path style="opacity:0.596" fill="#b6d8e5" d="M 114.5,114.5 C 116.262,115.262 117.262,116.596 117.5,118.5C 115.738,117.738 114.738,116.404 114.5,114.5 Z"/></g>
<g><path style="opacity:0.015" fill="#e4fcfd" d="M 232.5,89.5 C 232.667,109.836 232.5,130.169 232,150.5C 229.936,151.591 227.769,151.758 225.5,151C 224.663,149.989 224.33,148.822 224.5,147.5C 224.5,147.167 224.5,146.833 224.5,146.5C 225.328,150.255 227.495,151.255 231,149.5C 231.667,129.5 231.667,109.5 231,89.5C 228.586,88.1443 226.419,88.4776 224.5,90.5C 224.5,90.1667 224.5,89.8333 224.5,89.5C 225.312,88.0069 226.645,87.3402 228.5,87.5C 230.355,87.3402 231.688,88.0069 232.5,89.5 Z"/></g>
<g><path style="opacity:1" fill="#3c82a8" d="M 187.5,105.5 C 187.5,123.833 187.5,142.167 187.5,160.5C 182.833,160.5 178.167,160.5 173.5,160.5C 173.667,142.164 173.5,123.83 173,105.5C 171.708,104.209 170.542,104.209 169.5,105.5C 169.167,105.5 168.833,105.5 168.5,105.5C 169.918,103.692 171.918,103.025 174.5,103.5C 174.264,121.852 174.598,140.185 175.5,158.5C 179.03,159.011 182.196,158.344 185,156.5C 185.821,144.258 185.654,132.091 184.5,120C 185.176,115.011 186.176,110.177 187.5,105.5 Z"/></g>
<g><path style="opacity:0.004" fill="#d3eef6" d="M 96.5,118.5 C 98.2624,119.262 99.2624,120.596 99.5,122.5C 97.7376,121.738 96.7376,120.404 96.5,118.5 Z"/></g>
<g><path style="opacity:0.349" fill="#c0e0ec" d="M 117.5,118.5 C 119.262,119.262 120.262,120.596 120.5,122.5C 118.738,121.738 117.738,120.404 117.5,118.5 Z"/></g>
<g><path style="opacity:0.981" fill="#588fab" d="M 223.5,89.5 C 223.17,109.007 223.503,128.341 224.5,147.5C 224.33,148.822 224.663,149.989 225.5,151C 227.769,151.758 229.936,151.591 232,150.5C 232.5,130.169 232.667,109.836 232.5,89.5C 233.663,109.996 233.829,130.663 233,151.5C 228.906,154.476 225.573,153.809 223,149.5C 222.171,129.329 222.338,109.329 223.5,89.5 Z"/></g>
<g><path style="opacity:0.444" fill="#9cc1d2" d="M 223.5,89.5 C 223.833,89.5 224.167,89.5 224.5,89.5C 224.5,89.8333 224.5,90.1667 224.5,90.5C 225.153,109.134 225.153,127.8 224.5,146.5C 224.5,146.833 224.5,147.167 224.5,147.5C 223.503,128.341 223.17,109.007 223.5,89.5 Z"/></g>
<g><path style="opacity:0.098" fill="#ceebf5" d="M 120.5,122.5 C 121.906,122.973 122.573,123.973 122.5,125.5C 121.094,125.027 120.427,124.027 120.5,122.5 Z"/></g>
<g><path style="opacity:0.019" fill="#e5fefe" d="M 208.5,89.5 C 208.5,109.833 208.5,130.167 208.5,150.5C 207.808,137.141 207.141,123.641 206.5,110C 207.115,103.023 207.782,96.1901 208.5,89.5 Z"/></g>
<g><path style="opacity:0.827" fill="#6296b1" d="M 168.5,105.5 C 168.833,105.5 169.167,105.5 169.5,105.5C 169.5,105.833 169.5,106.167 169.5,106.5C 169.667,122.17 169.5,137.837 169,153.5C 167.669,155.996 165.836,157.996 163.5,159.5C 163.167,159.5 162.833,159.5 162.5,159.5C 162.343,158.127 162.51,156.793 163,155.5C 164.693,154.816 166.193,153.816 167.5,152.5C 168.499,136.848 168.833,121.181 168.5,105.5 Z"/></g>
<g><path style="opacity:0.547" fill="#accdd9" d="M 247.5,85.5 C 248.845,88.051 249.511,90.8844 249.5,94C 249.492,111.888 249.326,130.055 249,148.5C 248.79,150.058 248.29,151.391 247.5,152.5C 247.5,130.167 247.5,107.833 247.5,85.5 Z"/></g>
<g><path style="opacity:0.098" fill="#c9e7f3" d="M 103.5,127.5 C 104.906,127.973 105.573,128.973 105.5,130.5C 104.094,130.027 103.427,129.027 103.5,127.5 Z"/></g>
<g><path style="opacity:0.615" fill="#abcbd9" d="M 102.5,136.5 C 102.5,140.167 102.5,143.833 102.5,147.5C 101.514,143.03 101.181,138.363 101.5,133.5C 96.8333,133.5 92.1667,133.5 87.5,133.5C 87.5,140.167 87.5,146.833 87.5,153.5C 85.6357,147.075 85.1357,140.408 86,133.5C 91.4066,132.527 96.9066,132.193 102.5,132.5C 102.5,133.833 102.5,135.167 102.5,136.5 Z"/></g>
<g><path style="opacity:0.455" fill="#b3d6e1" d="M 107.5,134.5 C 109.213,135.635 109.88,137.302 109.5,139.5C 108.463,138.07 107.796,136.403 107.5,134.5 Z"/></g>
<g><path style="opacity:0.698" fill="#85adbe" d="M 123.5,127.5 C 124.793,128.842 125.626,130.509 126,132.5C 126.821,139.346 126.654,146.013 125.5,152.5C 125.95,144.021 125.283,135.688 123.5,127.5 Z"/></g>
<g><path style="opacity:0.997" fill="#4482a1" d="M 102.5,147.5 C 102.433,148.959 102.766,150.292 103.5,151.5C 102.25,151.423 101.417,150.756 101,149.5C 100.501,144.511 100.334,139.511 100.5,134.5C 96.5,134.5 92.5,134.5 88.5,134.5C 88.5,140.833 88.5,147.167 88.5,153.5C 88.1667,153.5 87.8333,153.5 87.5,153.5C 87.5,146.833 87.5,140.167 87.5,133.5C 92.1667,133.5 96.8333,133.5 101.5,133.5C 101.181,138.363 101.514,143.03 102.5,147.5 Z"/></g>
<g><path style="opacity:0.502" fill="#abd0e2" d="M 130.5,86.5 C 130.198,109.2 130.531,131.866 131.5,154.5C 130.778,154.082 130.278,153.416 130,152.5C 129.759,147.295 129.259,142.128 128.5,137C 129.551,123.185 129.551,109.519 128.5,96C 128.328,92.5226 128.994,89.356 130.5,86.5 Z"/></g>
<g><path style="opacity:0.016" fill="#d8f5fa" d="M 102.5,136.5 C 103.191,140.899 103.858,145.399 104.5,150C 106.112,150.72 107.612,150.554 109,149.5C 109.498,146.183 109.665,142.85 109.5,139.5C 110.643,142.976 110.81,146.642 110,150.5C 107.959,151.423 105.792,151.756 103.5,151.5C 102.766,150.292 102.433,148.959 102.5,147.5C 102.5,143.833 102.5,140.167 102.5,136.5 Z"/></g>
<g><path style="opacity:0.098" fill="#cbe9f3" d="M 87.5,153.5 C 87.8333,153.5 88.1667,153.5 88.5,153.5C 89.1098,154.391 89.4431,155.391 89.5,156.5C 88.0937,156.027 87.427,155.027 87.5,153.5 Z"/></g>
<g><path style="opacity:1" fill="#74a2ba" d="M 125.5,152.5 C 125.378,155.292 124.044,157.292 121.5,158.5C 121.167,158.5 120.833,158.5 120.5,158.5C 120.5,157.5 120.5,156.5 120.5,155.5C 121.5,155.5 122.5,155.5 123.5,155.5C 123.343,154.127 123.51,152.793 124,151.5C 124.383,152.056 124.883,152.389 125.5,152.5 Z"/></g>
<g><path style="opacity:0.824" fill="#9cc2d4" d="M 89.5,156.5 C 91.4044,156.738 92.7377,157.738 93.5,159.5C 91.5956,159.262 90.2623,158.262 89.5,156.5 Z"/></g>
<g><path style="opacity:1" fill="#7ca9c0" d="M 246.5,152.5 C 246.833,152.5 247.167,152.5 247.5,152.5C 246.607,156.395 244.274,159.062 240.5,160.5C 240.5,159.167 240.5,157.833 240.5,156.5C 241.833,156.5 243.167,156.5 244.5,156.5C 244.157,154.517 244.824,153.183 246.5,152.5 Z"/></g>
<g><path style="opacity:0.475" fill="#afd0e2" d="M 132.5,156.5 C 134.404,156.738 135.738,157.738 136.5,159.5C 134.596,159.262 133.262,158.262 132.5,156.5 Z"/></g>
<g><path style="opacity:0.49" fill="#b1d3e3" d="M 212.5,157.5 C 214.434,158.11 216.101,159.11 217.5,160.5C 215.067,160.727 213.401,159.727 212.5,157.5 Z"/></g>
<g><path style="opacity:0.024" fill="#d7f2f5" d="M 120.5,158.5 C 120.833,158.5 121.167,158.5 121.5,158.5C 120.089,160.539 118.089,161.539 115.5,161.5C 116.965,160.263 118.632,159.263 120.5,158.5 Z"/></g>
<g><path style="opacity:0.569" fill="#abcede" d="M 93.5,159.5 C 100.378,161.159 107.378,161.825 114.5,161.5C 109.684,162.65 104.684,162.816 99.5,162C 97.1484,161.76 95.1484,160.927 93.5,159.5 Z"/></g>
<g><path style="opacity:0.016" fill="#ddf7fa" d="M 162.5,159.5 C 162.833,159.5 163.167,159.5 163.5,159.5C 162.22,160.931 160.553,161.598 158.5,161.5C 159.514,160.326 160.847,159.66 162.5,159.5 Z"/></g>
<g><path style="opacity:0.223" fill="#cce8f4" d="M 136.5,159.5 C 143.719,161.182 151.052,161.848 158.5,161.5C 153.015,162.652 147.349,162.818 141.5,162C 139.509,161.626 137.842,160.793 136.5,159.5 Z"/></g>
<g><path style="opacity:0.217" fill="#cbe8f3" d="M 217.5,160.5 C 223.471,161.241 229.471,161.575 235.5,161.5C 233.19,162.164 230.69,162.497 228,162.5C 224.195,162.696 220.695,162.03 217.5,160.5 Z"/></g>
<g><path style="opacity:0.009" fill="#ebf8fb" d="M 157.5,183.5 C 158.091,182.849 158.757,182.182 159.5,181.5C 158.429,179.675 159.096,178.508 161.5,178C 160.036,174.759 161.202,172.926 165,172.5C 165.765,172.57 166.265,172.903 166.5,173.5C 165.504,173.414 164.671,173.748 164,174.5C 162.303,178.59 160.803,182.757 159.5,187C 159.836,188.03 160.503,188.53 161.5,188.5C 157.833,189.833 154.167,189.833 150.5,188.5C 149.609,187.89 148.609,187.557 147.5,187.5C 147.5,187.167 147.5,186.833 147.5,186.5C 145.167,186.5 142.833,186.5 140.5,186.5C 140.5,184.833 140.5,183.167 140.5,181.5C 147.167,180.833 147.167,180.167 140.5,179.5C 140.5,178.167 140.5,176.833 140.5,175.5C 142.735,175.795 144.735,175.461 146.5,174.5C 144.052,173.527 141.385,173.194 138.5,173.5C 138.5,178.167 138.5,182.833 138.5,187.5C 138.5,187.833 138.5,188.167 138.5,188.5C 137.883,188.389 137.383,188.056 137,187.5C 136.667,185.167 136.333,182.833 136,180.5C 135.814,183.036 135.314,185.369 134.5,187.5C 134.819,182.637 134.486,177.97 133.5,173.5C 132.539,175.265 132.205,177.265 132.5,179.5C 130.167,179.5 127.833,179.5 125.5,179.5C 125.5,177.5 125.5,175.5 125.5,173.5C 127.143,173.48 128.476,174.147 129.5,175.5C 130.364,173.803 131.697,172.637 133.5,172C 138.023,171.68 142.523,171.18 147,170.5C 149.185,170.921 151.351,171.421 153.5,172C 154.539,176.144 155.872,179.978 157.5,183.5 Z M 129.5,176.5 C 130.773,177.077 130.773,177.743 129.5,178.5C 128.537,178.03 128.537,177.363 129.5,176.5 Z M 147.5,180.5 C 148.773,181.077 148.773,181.743 147.5,182.5C 146.537,182.03 146.537,181.363 147.5,180.5 Z M 147.5,186.5 C 145.282,185.984 143.282,184.984 141.5,183.5C 143.594,184.373 145.928,184.373 148.5,183.5C 148.737,184.791 148.404,185.791 147.5,186.5 Z M 157.5,183.5 C 159.975,183.747 159.975,184.413 157.5,185.5C 156.537,185.03 156.537,184.363 157.5,183.5 Z"/></g>
<g><path style="opacity:0.019" fill="#eaf9fb" d="M 196.5,173.5 C 187.74,172.989 184.74,176.989 187.5,185.5C 186.167,185.5 184.833,185.5 183.5,185.5C 185.738,176.589 182.405,172.589 173.5,173.5C 173.5,178.5 173.5,183.5 173.5,188.5C 172.039,189.686 170.705,189.686 169.5,188.5C 170.124,188.083 170.457,187.416 170.5,186.5C 169.432,182.045 168.099,177.712 166.5,173.5C 167.688,172.316 168.855,172.316 170,173.5C 170.667,172.833 171.333,172.167 172,171.5C 176.428,170.943 180.761,171.61 185,173.5C 188.031,171.976 191.031,171.31 194,171.5C 194.995,172.066 195.828,172.733 196.5,173.5 Z M 179.5,179.5 C 180.895,180.648 180.728,181.648 179,182.5C 178.26,181.251 178.427,180.251 179.5,179.5 Z M 178.5,184.5 C 177.923,185.773 177.257,185.773 176.5,184.5C 176.97,183.537 177.637,183.537 178.5,184.5 Z"/></g>
<g><path style="opacity:0.017" fill="#edfefe" d="M 123.5,173.5 C 123.5,178.5 123.5,183.5 123.5,188.5C 122.729,185.154 122.062,181.654 121.5,178C 121.899,176.272 122.566,174.772 123.5,173.5 Z"/></g>
<g><path style="opacity:0.89" fill="#7596a5" d="M 196.5,173.5 C 199.462,178.815 199.128,183.815 195.5,188.5C 192.08,189.799 189.413,188.799 187.5,185.5C 184.74,176.989 187.74,172.989 196.5,173.5 Z M 191.5,176.5 C 192.397,177.598 193.23,177.598 194,176.5C 194.704,178.278 195.204,180.112 195.5,182C 195.291,183.871 194.291,185.038 192.5,185.5C 190.988,184.009 189.988,182.176 189.5,180C 190.823,179.184 191.489,178.017 191.5,176.5 Z"/></g>
<g><path style="opacity:0.8" fill="#6690a4" d="M 125.5,173.5 C 125.5,175.5 125.5,177.5 125.5,179.5C 127.833,179.5 130.167,179.5 132.5,179.5C 132.205,177.265 132.539,175.265 133.5,173.5C 133.819,178.363 133.486,183.03 132.5,187.5C 132.5,185.5 132.5,183.5 132.5,181.5C 129.941,181.198 127.607,181.532 125.5,182.5C 125.5,183.833 125.5,185.167 125.5,186.5C 125.5,186.833 125.5,187.167 125.5,187.5C 125.289,189.424 124.623,189.757 123.5,188.5C 123.5,183.5 123.5,178.5 123.5,173.5C 124.167,172.167 124.833,172.167 125.5,173.5 Z M 129.5,176.5 C 128.537,177.363 128.537,178.03 129.5,178.5C 130.773,177.743 130.773,177.077 129.5,176.5 Z"/></g>
<g><path style="opacity:0.875" fill="#547b8e" d="M 146.5,174.5 C 144.167,174.5 141.833,174.5 139.5,174.5C 139.818,179.032 139.485,183.366 138.5,187.5C 138.5,182.833 138.5,178.167 138.5,173.5C 141.385,173.194 144.052,173.527 146.5,174.5 Z"/></g>
<g><path style="opacity:0.016" fill="#e6fbfd" d="M 190.5,175.5 C 192.467,175.261 194.301,175.594 196,176.5C 196.784,179.76 196.617,182.927 195.5,186C 189.481,186.538 187.314,183.705 189,177.5C 189.717,176.956 190.217,176.289 190.5,175.5 Z M 191.5,176.5 C 191.489,178.017 190.823,179.184 189.5,180C 189.988,182.176 190.988,184.009 192.5,185.5C 194.291,185.038 195.291,183.871 195.5,182C 195.204,180.112 194.704,178.278 194,176.5C 193.23,177.598 192.397,177.598 191.5,176.5 Z"/></g>
<g><path style="opacity:0.928" fill="#6e92a4" d="M 183.5,185.5 C 182.5,185.833 181.833,186.5 181.5,187.5C 178.96,189.413 176.293,189.746 173.5,188.5C 173.5,183.5 173.5,178.5 173.5,173.5C 182.405,172.589 185.738,176.589 183.5,185.5 Z M 179.5,179.5 C 178.427,180.251 178.26,181.251 179,182.5C 180.728,181.648 180.895,180.648 179.5,179.5 Z M 178.5,184.5 C 177.637,183.537 176.97,183.537 176.5,184.5C 177.257,185.773 177.923,185.773 178.5,184.5 Z"/></g>
<g><path style="opacity:0.014" fill="#e8fafb" d="M 180.5,184.5 C 179.365,186.213 177.698,186.88 175.5,186.5C 175.5,182.833 175.5,179.167 175.5,175.5C 180.039,174.539 182.372,176.373 182.5,181C 182.613,182.699 181.947,183.866 180.5,184.5 Z M 179.5,179.5 C 178.427,180.251 178.26,181.251 179,182.5C 180.728,181.648 180.895,180.648 179.5,179.5 Z M 178.5,184.5 C 177.637,183.537 176.97,183.537 176.5,184.5C 177.257,185.773 177.923,185.773 178.5,184.5 Z"/></g>
<g><path style="opacity:0.92" fill="#7094a5" d="M 208.5,179.5 C 208.842,180.338 209.508,180.672 210.5,180.5C 211.15,182.435 211.483,184.435 211.5,186.5C 211.5,187.167 211.167,187.5 210.5,187.5C 208.283,188.369 205.95,188.702 203.5,188.5C 201.81,188.144 200.81,187.144 200.5,185.5C 201.961,184.314 203.295,184.314 204.5,185.5C 205.601,186.598 206.934,186.765 208.5,186C 209.022,185.439 209.355,184.772 209.5,184C 207.625,182.14 205.458,180.64 203,179.5C 201.607,175.798 202.774,173.798 206.5,173.5C 208.067,173.477 209.4,173.977 210.5,175C 208.527,175.495 206.527,175.662 204.5,175.5C 204.167,178.5 205.5,179.833 208.5,179.5 Z"/></g>
<g><path style="opacity:0.667" fill="#8dacb9" d="M 146.5,174.5 C 144.735,175.461 142.735,175.795 140.5,175.5C 140.5,176.833 140.5,178.167 140.5,179.5C 147.167,180.167 147.167,180.833 140.5,181.5C 140.5,183.167 140.5,184.833 140.5,186.5C 142.833,186.5 145.167,186.5 147.5,186.5C 147.5,186.833 147.5,187.167 147.5,187.5C 146.486,188.765 144.986,189.431 143,189.5C 141.293,189.492 139.793,189.158 138.5,188.5C 138.5,188.167 138.5,187.833 138.5,187.5C 139.485,183.366 139.818,179.032 139.5,174.5C 141.833,174.5 144.167,174.5 146.5,174.5 Z"/></g>
<g><path style="opacity:0.932" fill="#628a9e" d="M 166.5,173.5 C 168.099,177.712 169.432,182.045 170.5,186.5C 170.457,187.416 170.124,188.083 169.5,188.5C 168.962,186.883 168.629,185.216 168.5,183.5C 166.473,183.338 164.473,183.505 162.5,184C 161.62,185.356 161.286,186.856 161.5,188.5C 160.503,188.53 159.836,188.03 159.5,187C 160.803,182.757 162.303,178.59 164,174.5C 164.671,173.748 165.504,173.414 166.5,173.5 Z"/></g>
<g><path style="opacity:0.012" fill="#d2f3fa" d="M 164.5,175.5 C 165.864,177.22 166.864,179.22 167.5,181.5C 166.311,182.429 164.978,182.762 163.5,182.5C 163.993,180.194 164.326,177.861 164.5,175.5 Z"/></g>
<g><path style="opacity:0.553" fill="#92adb8" d="M 133.5,173.5 C 134.486,177.97 134.819,182.637 134.5,187.5C 134.5,187.833 134.5,188.167 134.5,188.5C 133.508,188.672 132.842,188.338 132.5,187.5C 133.486,183.03 133.819,178.363 133.5,173.5 Z"/></g>
<g><path style="opacity:0.231" fill="#d6eff6" d="M 125.5,182.5 C 127.607,181.532 129.941,181.198 132.5,181.5C 132.5,183.5 132.5,185.5 132.5,187.5C 132.842,188.338 133.508,188.672 134.5,188.5C 133.614,189.776 132.614,189.776 131.5,188.5C 131.431,186.722 131.097,184.889 130.5,183C 128.866,182.506 127.199,182.34 125.5,182.5 Z"/></g>
<g><path style="opacity:0.008" fill="#d6ecf1" d="M 169.5,188.5 C 166.73,184.538 164.063,184.538 161.5,188.5C 161.286,186.856 161.62,185.356 162.5,184C 164.473,183.505 166.473,183.338 168.5,183.5C 168.629,185.216 168.962,186.883 169.5,188.5 Z"/></g>
<g><path style="opacity:0.004" fill="#f8fdfc" d="M 125.5,187.5 C 125.5,187.167 125.5,186.833 125.5,186.5C 128.336,186.202 128.836,186.869 127,188.5C 126.617,187.944 126.117,187.611 125.5,187.5 Z"/></g>
<g><path style="opacity:0.004" fill="#eefefe" d="M 183.5,185.5 C 184.66,187.203 183.993,187.869 181.5,187.5C 181.833,186.5 182.5,185.833 183.5,185.5 Z"/></g>
<g><path style="opacity:0.012" fill="#e6f7fa" d="M 211.5,186.5 C 211.483,184.435 211.15,182.435 210.5,180.5C 209.508,180.672 208.842,180.338 208.5,179.5C 205.5,179.833 204.167,178.5 204.5,175.5C 206.527,175.662 208.527,175.495 210.5,175C 209.4,173.977 208.067,173.477 206.5,173.5C 202.774,173.798 201.607,175.798 203,179.5C 205.458,180.64 207.625,182.14 209.5,184C 209.355,184.772 209.022,185.439 208.5,186C 206.934,186.765 205.601,186.598 204.5,185.5C 206.103,185.688 207.437,185.188 208.5,184C 206.833,183.167 205.167,182.333 203.5,181.5C 202.808,182.025 202.308,182.692 202,183.5C 201.667,183.167 201.333,182.833 201,182.5C 200.517,183.448 200.351,184.448 200.5,185.5C 199.078,186.925 197.411,187.925 195.5,188.5C 199.128,183.815 199.462,178.815 196.5,173.5C 200.876,172.328 205.376,171.661 210,171.5C 211.858,174.764 213.025,178.264 213.5,182C 212.901,183.622 212.234,185.122 211.5,186.5 Z M 204.5,185.5 C 203.295,184.314 201.961,184.314 200.5,185.5C 200.351,184.448 200.517,183.448 201,182.5C 201.333,182.833 201.667,183.167 202,183.5C 202.308,182.692 202.808,182.025 203.5,181.5C 205.167,182.333 206.833,183.167 208.5,184C 207.437,185.188 206.103,185.688 204.5,185.5 Z"/></g>
<g><path style="opacity:0.679" fill="#7998a4" d="M 150.5,188.5 C 150.173,183.456 150.506,178.456 151.5,173.5C 152.492,177.783 152.826,182.116 152.5,186.5C 154.604,186.201 156.604,186.534 158.5,187.5C 155.914,188.48 153.247,188.813 150.5,188.5 Z"/></g>
<g><path style="opacity:0.018" fill="#eefdfe" d="M 210.5,187.5 C 209.848,188.725 208.681,189.392 207,189.5C 205.615,189.486 204.449,189.152 203.5,188.5C 205.95,188.702 208.283,188.369 210.5,187.5 Z"/></g>
</svg>
