<?xml version="1.0" encoding="UTF-8"?>
<!DOCTYPE svg PUBLIC "-//W3C//DTD SVG 1.1//EN" "http://www.w3.org/Graphics/SVG/1.1/DTD/svg11.dtd">
<svg xmlns="http://www.w3.org/2000/svg" version="1.1" width="377px" height="190px" style="shape-rendering:geometricPrecision; text-rendering:geometricPrecision; image-rendering:optimizeQuality; fill-rule:evenodd; clip-rule:evenodd" xmlns:xlink="http://www.w3.org/1999/xlink">
<g><path style="opacity:0.561" fill="#0480db" d="M 266.5,12.5 C 264.393,13.4682 262.059,13.8016 259.5,13.5C 246.496,13.3334 233.496,13.5001 220.5,14C 219.748,14.6708 219.414,15.5041 219.5,16.5C 218.662,16.1583 218.328,15.4916 218.5,14.5C 219.347,13.0337 220.68,12.2004 222.5,12C 237.199,11.2165 251.865,11.3832 266.5,12.5 Z"/></g>
<g><path style="opacity:0.682" fill="#0f8ee0" d="M 266.5,12.5 C 268.582,12.472 270.416,13.1387 272,14.5C 273.323,18.7713 272.156,21.938 268.5,24C 257.179,24.8327 245.846,25.3327 234.5,25.5C 233.791,24.596 232.791,24.2627 231.5,24.5C 231.918,23.7784 232.584,23.2784 233.5,23C 245.311,22.7803 256.977,22.6136 268.5,22.5C 269.248,20.4159 269.248,18.4159 268.5,16.5C 265.495,15.1823 262.495,14.1823 259.5,13.5C 262.059,13.8016 264.393,13.4682 266.5,12.5 Z"/></g>
<g><path style="opacity:1" fill="#019afb" d="M 100.5,27.5 C 95.7412,23.7497 90.2412,22.0831 84,22.5C 81.0706,22.5248 78.5706,23.1914 76.5,24.5C 76.1583,25.3382 75.4916,25.6716 74.5,25.5C 71.53,23.391 68.6967,24.0577 66,27.5C 60.543,38.237 63.7097,44.737 75.5,47C 79.777,48.9485 84.1103,49.4485 88.5,48.5C 88.4142,49.4959 88.7476,50.3292 89.5,51C 93.2643,51.8659 96.931,53.0326 100.5,54.5C 103.474,57.1379 106.474,59.8046 109.5,62.5C 109.781,67.5638 110.781,72.2305 112.5,76.5C 112.5,76.8333 112.5,77.1667 112.5,77.5C 111.448,77.3505 110.448,77.5172 109.5,78C 103.178,89.1613 93.5114,93.9946 80.5,92.5C 72.7671,91.7869 65.1004,90.6202 57.5,89C 55.9179,86.9146 53.9179,85.4146 51.5,84.5C 50.6258,82.2534 50.2924,79.9201 50.5,77.5C 52.5273,77.3379 54.5273,77.5045 56.5,78C 62.1661,80.491 67.8327,82.8243 73.5,85C 79.1055,85.9234 84.4388,85.4234 89.5,83.5C 98.0156,80.7453 101.016,75.0787 98.5,66.5C 95.455,63.4842 91.7883,61.8175 87.5,61.5C 86.1917,60.7677 84.8584,59.9344 83.5,59C 74.4506,57.9958 66.1172,55.1624 58.5,50.5C 49.6677,38.486 51.001,27.6526 62.5,18C 68.6119,14.1279 75.2786,12.6279 82.5,13.5C 92.2406,13.0246 100.907,15.8579 108.5,22C 109.997,29.326 107.33,31.1593 100.5,27.5 Z"/></g>
<g><path style="opacity:1" fill="#0199fc" d="M 259.5,13.5 C 262.495,14.1823 265.495,15.1823 268.5,16.5C 269.248,18.4159 269.248,20.4159 268.5,22.5C 256.977,22.6136 245.311,22.7803 233.5,23C 232.584,23.2784 231.918,23.7784 231.5,24.5C 230.167,31.8333 230.167,39.1667 231.5,46.5C 233.743,47.8117 236.41,48.4783 239.5,48.5C 248.417,48.0981 257.417,48.0981 266.5,48.5C 267.46,52.0664 267.46,55.3997 266.5,58.5C 265.833,58.5 265.167,58.5 264.5,58.5C 261.135,56.9608 257.469,56.2942 253.5,56.5C 245.981,56.796 238.648,57.4627 231.5,58.5C 230.67,68.6585 230.17,78.9919 230,89.5C 229.59,90.9007 229.09,92.234 228.5,93.5C 224.551,93.5343 221.718,91.8676 220,88.5C 219.5,64.5023 219.333,40.5023 219.5,16.5C 219.414,15.5041 219.748,14.6708 220.5,14C 233.496,13.5001 246.496,13.3334 259.5,13.5 Z"/></g>
<g><path style="opacity:0.871" fill="#0e8ddd" d="M 218.5,14.5 C 218.328,15.4916 218.662,16.1583 219.5,16.5C 219.333,40.5023 219.5,64.5023 220,88.5C 221.718,91.8676 224.551,93.5343 228.5,93.5C 225.29,95.7645 221.956,95.5978 218.5,93C 217.874,92.2496 217.374,91.4162 217,90.5C 216.333,65.8333 216.333,41.1667 217,16.5C 217.278,15.5842 217.778,14.9175 218.5,14.5 Z"/></g>
<g><path style="opacity:0.792" fill="#4eb6e9" d="M 231.5,24.5 C 232.791,24.2627 233.791,24.596 234.5,25.5C 233.509,31.979 233.176,38.6457 233.5,45.5C 236.167,45.5 238.833,45.5 241.5,45.5C 238.375,46.4794 235.042,46.8128 231.5,46.5C 230.167,39.1667 230.167,31.8333 231.5,24.5 Z"/></g>
<g><path style="opacity:0.867" fill="#249ae1" d="M 74.5,25.5 C 67.3772,27.7455 65.0439,32.4122 67.5,39.5C 69.0284,40.8613 70.6951,42.028 72.5,43C 77.9795,44.7698 83.3128,46.6031 88.5,48.5C 84.1103,49.4485 79.777,48.9485 75.5,47C 63.7097,44.737 60.543,38.237 66,27.5C 68.6967,24.0577 71.53,23.391 74.5,25.5 Z"/></g>
<g><path style="opacity:1" fill="#0d8de0" d="M 174.5,12.5 C 186.485,15.6428 194.985,22.9761 200,34.5C 202.9,45.7425 203.233,57.0758 201,68.5C 194.869,86.5751 182.203,95.5751 163,95.5C 136.805,93.6908 123.638,79.5241 123.5,53C 123.159,26.5101 136.159,12.3434 162.5,10.5C 166.74,10.5398 170.74,11.2064 174.5,12.5 Z M 185.5,45.5 C 185.5,50.8333 185.5,56.1667 185.5,61.5C 183.857,70.8252 178.857,77.4919 170.5,81.5C 167.833,81.5 165.167,81.5 162.5,81.5C 152.913,81.7902 146.413,77.4569 143,68.5C 139.174,56.5492 139.84,44.8825 145,33.5C 155.996,22.2357 167.663,21.569 180,31.5C 182.943,35.8445 184.776,40.5112 185.5,45.5 Z"/></g>
<g><path style="opacity:1" fill="#019afc" d="M 174.5,12.5 C 174.414,13.4959 174.748,14.3292 175.5,15C 184.86,18.698 192.026,24.8647 197,33.5C 199.717,45.1209 200.051,56.7876 198,68.5C 194.023,80.8125 185.856,88.6458 173.5,92C 153.564,96.2709 138.73,89.7709 129,72.5C 123.012,55.8792 124.679,40.2125 134,25.5C 137.621,21.5372 141.787,18.3705 146.5,16C 155.772,14.0845 165.105,12.9178 174.5,12.5 Z M 185.5,45.5 C 185.5,50.8333 185.5,56.1667 185.5,61.5C 183.857,70.8252 178.857,77.4919 170.5,81.5C 167.833,81.5 165.167,81.5 162.5,81.5C 152.913,81.7902 146.413,77.4569 143,68.5C 139.174,56.5492 139.84,44.8825 145,33.5C 155.996,22.2357 167.663,21.569 180,31.5C 182.943,35.8445 184.776,40.5112 185.5,45.5 Z"/></g>
<g><path style="opacity:0.235" fill="#1f97e1" d="M 157.5,21.5 C 173.93,20.0911 184.097,27.4244 188,43.5C 190.388,57.6094 187.221,70.1094 178.5,81C 174.833,82.3337 171.166,83.667 167.5,85C 149.897,85.6569 140.064,77.1569 138,59.5C 135.204,44.6379 139.704,32.6379 151.5,23.5C 153.657,22.9495 155.657,22.2829 157.5,21.5 Z M 185.5,45.5 C 185.5,50.8333 185.5,56.1667 185.5,61.5C 183.857,70.8252 178.857,77.4919 170.5,81.5C 167.833,81.5 165.167,81.5 162.5,81.5C 152.913,81.7902 146.413,77.4569 143,68.5C 139.174,56.5492 139.84,44.8825 145,33.5C 155.996,22.2357 167.663,21.569 180,31.5C 182.943,35.8445 184.776,40.5112 185.5,45.5 Z"/></g>
<g><path style="opacity:0.541" fill="#72d1f2" d="M 185.5,45.5 C 188.007,50.8059 188.007,56.1392 185.5,61.5C 185.5,56.1667 185.5,50.8333 185.5,45.5 Z"/></g>
<g><path style="opacity:0.918" fill="#0f8fe1" d="M 100.5,29.5 C 100.5,28.8333 100.5,28.1667 100.5,27.5C 107.33,31.1593 109.997,29.326 108.5,22C 100.907,15.8579 92.2406,13.0246 82.5,13.5C 75.2786,12.6279 68.6119,14.1279 62.5,18C 51.001,27.6526 49.6677,38.486 58.5,50.5C 66.1172,55.1624 74.4506,57.9958 83.5,59C 84.8584,59.9344 86.1917,60.7677 87.5,61.5C 86.4937,61.9377 86.4937,62.6043 87.5,63.5C 77.0561,61.2963 67.0561,57.7963 57.5,53C 48.6828,44.3592 47.1828,34.5258 53,23.5C 60.6741,14.4359 70.5075,10.1026 82.5,10.5C 93.5509,10.347 103.051,14.0137 111,21.5C 113.551,27.2009 111.885,30.8676 106,32.5C 103.88,31.8598 102.046,30.8598 100.5,29.5 Z"/></g>
<g><path style="opacity:1" fill="#2a9fe3" d="M 100.5,27.5 C 100.5,28.1667 100.5,28.8333 100.5,29.5C 93.0424,25.3503 85.0424,23.6837 76.5,24.5C 78.5706,23.1914 81.0706,22.5248 84,22.5C 90.2412,22.0831 95.7412,23.7497 100.5,27.5 Z"/></g>
<g><path style="opacity:0.918" fill="#0d8ce1" d="M 241.5,45.5 C 250.181,45.6571 258.848,46.1571 267.5,47C 271.693,51.3168 271.36,55.1501 266.5,58.5C 267.46,55.3997 267.46,52.0664 266.5,48.5C 257.417,48.0981 248.417,48.0981 239.5,48.5C 236.41,48.4783 233.743,47.8117 231.5,46.5C 235.042,46.8128 238.375,46.4794 241.5,45.5 Z"/></g>
<g><path style="opacity:0.984" fill="#0d8bde" d="M 88.5,48.5 C 97.3319,49.9993 104.832,53.9993 111,60.5C 113.482,65.6837 113.982,71.017 112.5,76.5C 110.781,72.2305 109.781,67.5638 109.5,62.5C 106.474,59.8046 103.474,57.1379 100.5,54.5C 96.931,53.0326 93.2643,51.8659 89.5,51C 88.7476,50.3292 88.4142,49.4959 88.5,48.5 Z"/></g>
<g><path style="opacity:0.918" fill="#128ede" d="M 264.5,58.5 C 254.5,58.8333 244.5,59.1667 234.5,59.5C 233.791,58.596 232.791,58.2627 231.5,58.5C 238.648,57.4627 245.981,56.796 253.5,56.5C 257.469,56.2942 261.135,56.9608 264.5,58.5 Z"/></g>
<g><path style="opacity:0.318" fill="#52bceb" d="M 231.5,58.5 C 232.791,58.2627 233.791,58.596 234.5,59.5C 233.527,61.9479 233.194,64.6146 233.5,67.5C 232.883,67.6107 232.383,67.944 232,68.5C 231.502,65.1832 231.335,61.8499 231.5,58.5 Z"/></g>
<g><path style="opacity:0.467" fill="#1991dd" d="M 231.5,58.5 C 231.335,61.8499 231.502,65.1832 232,68.5C 232.383,67.944 232.883,67.6107 233.5,67.5C 233.022,75.1629 232.522,82.8296 232,90.5C 231.578,92.4257 230.411,93.4257 228.5,93.5C 229.09,92.234 229.59,90.9007 230,89.5C 230.17,78.9919 230.67,68.6585 231.5,58.5 Z"/></g>
<g><path style="opacity:0.918" fill="#108fe2" d="M 74.5,81.5 C 77.3373,83.4023 80.6707,84.069 84.5,83.5C 86.1667,83.5 87.8333,83.5 89.5,83.5C 84.4388,85.4234 79.1055,85.9234 73.5,85C 67.8327,82.8243 62.1661,80.491 56.5,78C 54.5273,77.5045 52.5273,77.3379 50.5,77.5C 50.2924,79.9201 50.6258,82.2534 51.5,84.5C 53.9179,85.4146 55.9179,86.9146 57.5,89C 65.1004,90.6202 72.7671,91.7869 80.5,92.5C 93.5114,93.9946 103.178,89.1613 109.5,78C 110.448,77.5172 111.448,77.3505 112.5,77.5C 108.495,87.9906 100.828,93.8239 89.5,95C 75.8389,97.1144 63.1722,94.6144 51.5,87.5C 48.644,84.3758 47.8107,80.7092 49,76.5C 51.2431,74.718 53.7431,74.218 56.5,75C 62.2235,78.0328 68.2235,80.1995 74.5,81.5 Z"/></g>
<g><path style="opacity:1" fill="#2099e3" d="M 87.5,61.5 C 91.7883,61.8175 95.455,63.4842 98.5,66.5C 101.016,75.0787 98.0156,80.7453 89.5,83.5C 87.8333,83.5 86.1667,83.5 84.5,83.5C 84.8333,82.8333 85.1667,82.1667 85.5,81.5C 92.2348,81.4308 96.2348,78.0975 97.5,71.5C 95.6412,66.9731 92.3079,64.3064 87.5,63.5C 86.4937,62.6043 86.4937,61.9377 87.5,61.5 Z"/></g>
<g><path style="opacity:0.792" fill="#56bbe8" d="M 74.5,81.5 C 78.1667,81.5 81.8333,81.5 85.5,81.5C 85.1667,82.1667 84.8333,82.8333 84.5,83.5C 80.6707,84.069 77.3373,83.4023 74.5,81.5 Z"/></g>
<g><path style="opacity:0.867" fill="#3dabe4" d="M 162.5,81.5 C 165.167,81.5 167.833,81.5 170.5,81.5C 170.611,82.1174 170.944,82.6174 171.5,83C 168.167,83.6667 164.833,83.6667 161.5,83C 162.056,82.6174 162.389,82.1174 162.5,81.5 Z"/></g>
<g><path style="opacity:1" fill="#0c8de1" d="M 306.5,11.5 C 322.935,8.0746 337.102,12.0746 349,23.5C 357.842,38.5687 359.842,54.5687 355,71.5C 348.208,87.9464 335.874,95.9464 318,95.5C 299.278,95.7599 286.945,87.0932 281,69.5C 276.617,54.071 278.284,39.4043 286,25.5C 291.679,18.9281 298.512,14.2614 306.5,11.5 Z M 325.5,25.5 C 331.5,28.1667 335.833,32.5 338.5,38.5C 340.335,45.3181 341.002,52.3181 340.5,59.5C 339.833,62.8333 339.167,66.1667 338.5,69.5C 335.833,74.1667 332.167,77.8333 327.5,80.5C 322.213,81.3424 316.88,81.6757 311.5,81.5C 304.942,79.445 300.442,75.1116 298,68.5C 295.341,59.2884 294.841,49.9551 296.5,40.5C 299.23,32.7714 304.563,27.7714 312.5,25.5C 316.801,24.2271 321.135,24.2271 325.5,25.5 Z"/></g>
<g><path style="opacity:1" fill="#019afc" d="M 307.5,13.5 C 320.919,11.124 332.919,13.9573 343.5,22C 352.243,30.9326 355.91,41.7659 354.5,54.5C 355.374,73.1043 347.041,85.271 329.5,91C 328.874,91.7504 328.374,92.5838 328,93.5C 320.213,92.7298 312.38,91.8964 304.5,91C 302.192,89.1335 299.525,88.1335 296.5,88C 280.38,71.3312 276.88,52.1645 286,30.5C 291.32,22.33 298.487,16.6633 307.5,13.5 Z M 325.5,25.5 C 331.5,28.1667 335.833,32.5 338.5,38.5C 340.335,45.3181 341.002,52.3181 340.5,59.5C 339.833,62.8333 339.167,66.1667 338.5,69.5C 335.833,74.1667 332.167,77.8333 327.5,80.5C 322.213,81.3424 316.88,81.6757 311.5,81.5C 304.942,79.445 300.442,75.1116 298,68.5C 295.341,59.2884 294.841,49.9551 296.5,40.5C 299.23,32.7714 304.563,27.7714 312.5,25.5C 316.801,24.2271 321.135,24.2271 325.5,25.5 Z"/></g>
<g><path style="opacity:0.741" fill="#33a5e4" d="M 327.5,80.5 C 328.239,80.369 328.906,80.5357 329.5,81C 328.142,81.9344 326.808,82.7677 325.5,83.5C 321.167,83.5 316.833,83.5 312.5,83.5C 312.167,82.8333 311.833,82.1667 311.5,81.5C 316.88,81.6757 322.213,81.3424 327.5,80.5 Z"/></g>
<g><path style="opacity:0.918" fill="#0f90e2" d="M 338.5,69.5 C 338.263,70.791 338.596,71.791 339.5,72.5C 336.739,76.1026 333.739,79.6026 330.5,83C 328.866,83.4935 327.199,83.6602 325.5,83.5C 326.808,82.7677 328.142,81.9344 329.5,81C 328.906,80.5357 328.239,80.369 327.5,80.5C 332.167,77.8333 335.833,74.1667 338.5,69.5 Z"/></g>
<g><path style="opacity:0.996" fill="#2b9fe1" d="M 343.5,57.5 C 342.945,62.7215 341.612,67.7215 339.5,72.5C 338.596,71.791 338.263,70.791 338.5,69.5C 339.167,66.1667 339.833,62.8333 340.5,59.5C 341.166,54.9834 341.833,50.3167 342.5,45.5C 343.491,49.4454 343.824,53.4454 343.5,57.5 Z"/></g>
<g><path style="opacity:0.145" fill="#1693e1" d="M 295.5,36.5 C 295.792,37.8736 296.125,39.2069 296.5,40.5C 294.841,49.9551 295.341,59.2884 298,68.5C 300.442,75.1116 304.942,79.445 311.5,81.5C 311.833,82.1667 312.167,82.8333 312.5,83.5C 303.523,82.3686 297.69,77.3686 295,68.5C 291.522,57.7147 291.689,47.0481 295.5,36.5 Z"/></g>
<g><path style="opacity:0.353" fill="#1091e3" d="M 338.5,38.5 C 339.798,39.1157 340.798,39.1157 341.5,38.5C 342.927,40.1484 343.76,42.1484 344,44.5C 344.814,49.0204 344.647,53.3537 343.5,57.5C 343.824,53.4454 343.491,49.4454 342.5,45.5C 341.833,50.3167 341.166,54.9834 340.5,59.5C 341.002,52.3181 340.335,45.3181 338.5,38.5 Z"/></g>
<g><path style="opacity:0.996" fill="#2a9ee2" d="M 312.5,25.5 C 304.563,27.7714 299.23,32.7714 296.5,40.5C 296.125,39.2069 295.792,37.8736 295.5,36.5C 297.74,31.5933 301.073,27.5933 305.5,24.5C 307.746,24.0639 309.913,23.3972 312,22.5C 312.483,23.448 312.649,24.448 312.5,25.5 Z"/></g>
<g><path style="opacity:0.867" fill="#2fa1e3" d="M 331.5,25.5 C 336.331,28.6663 339.664,32.9996 341.5,38.5C 340.798,39.1157 339.798,39.1157 338.5,38.5C 335.833,32.5 331.5,28.1667 325.5,25.5C 325.47,24.5028 325.97,23.8361 327,23.5C 328.406,24.4138 329.906,25.0805 331.5,25.5 Z"/></g>
<g><path style="opacity:0.235" fill="#1495e6" d="M 331.5,25.5 C 329.906,25.0805 328.406,24.4138 327,23.5C 325.97,23.8361 325.47,24.5028 325.5,25.5C 321.135,24.2271 316.801,24.2271 312.5,25.5C 312.649,24.448 312.483,23.448 312,22.5C 309.913,23.3972 307.746,24.0639 305.5,24.5C 305.611,23.8826 305.944,23.3826 306.5,23C 314.151,21.1002 321.818,21.1002 329.5,23C 330.756,23.4169 331.423,24.2502 331.5,25.5 Z"/></g>
<g><path style="opacity:0.616" fill="#0380da" d="M 358.5,102.5 C 255.167,103.833 151.833,103.833 48.5,102.5C 151.844,101.391 255.177,101.391 358.5,102.5 Z"/></g>
<g><path style="opacity:1" fill="#098fe7" d="M 48.5,102.5 C 151.833,103.833 255.167,103.833 358.5,102.5C 360.95,102.874 361.95,104.374 361.5,107C 361.693,109.008 361.026,110.508 359.5,111.5C 359.5,109.167 359.5,106.833 359.5,104.5C 255.499,104.333 151.499,104.5 47.5,105C 46.6198,106.356 46.2865,107.856 46.5,109.5C 45.8333,109.5 45.5,109.833 45.5,110.5C 44.2749,109.848 43.6083,108.681 43.5,107C 43.5036,103.663 45.1702,102.163 48.5,102.5 Z"/></g>
<g><path style="opacity:1" fill="#019afb" d="M 359.5,111.5 C 359.167,111.5 358.833,111.5 358.5,111.5C 254.839,109.502 150.839,108.836 46.5,109.5C 46.2865,107.856 46.6198,106.356 47.5,105C 151.499,104.5 255.499,104.333 359.5,104.5C 359.5,106.833 359.5,109.167 359.5,111.5 Z"/></g>
<g><path style="opacity:0.808" fill="#0486e2" d="M 46.5,109.5 C 150.839,108.836 254.839,109.502 358.5,111.5C 253.999,111.833 149.665,111.499 45.5,110.5C 45.5,109.833 45.8333,109.5 46.5,109.5 Z"/></g>
<g><path style="opacity:0.561" fill="#017eda" d="M 109.5,118.5 C 98.012,119.495 86.3453,119.828 74.5,119.5C 66.3159,119.826 58.3159,119.492 50.5,118.5C 70.0194,117.697 89.6861,117.697 109.5,118.5 Z"/></g>
<g><path style="opacity:0.561" fill="#017dd9" d="M 337.5,118.5 C 307.338,119.498 277.005,119.831 246.5,119.5C 244.833,119.5 243.167,119.5 241.5,119.5C 213.5,119.5 185.5,119.5 157.5,119.5C 155.167,119.5 152.833,119.5 150.5,119.5C 139.167,119.5 127.833,119.5 116.5,119.5C 115.5,119.5 114.5,119.5 113.5,119.5C 113.5,119.167 113.5,118.833 113.5,118.5C 188.322,117.304 262.989,117.304 337.5,118.5 Z"/></g>
<g><path style="opacity:1" fill="#0199fc" d="M 109.5,118.5 C 110.833,118.5 112.167,118.5 113.5,118.5C 113.5,118.833 113.5,119.167 113.5,119.5C 111.833,120.167 110.167,120.833 108.5,121.5C 107.833,121.5 107.5,121.833 107.5,122.5C 106.513,127.305 106.179,132.305 106.5,137.5C 95.5,137.5 84.5,137.5 73.5,137.5C 73.2539,131.441 73.5872,125.441 74.5,119.5C 86.3453,119.828 98.012,119.495 109.5,118.5 Z"/></g>
<g><path style="opacity:1" fill="#019afc" d="M 116.5,119.5 C 127.833,119.5 139.167,119.5 150.5,119.5C 150.241,125.409 150.575,131.409 151.5,137.5C 139.784,138.144 128.451,137.478 117.5,135.5C 116.082,133.692 114.082,133.025 111.5,133.5C 111.5,132.5 111.5,131.5 111.5,130.5C 113.099,130.768 114.432,130.434 115.5,129.5C 115.672,128.508 115.338,127.842 114.5,127.5C 114.082,126.778 113.416,126.278 112.5,126C 114.025,124.991 115.692,124.491 117.5,124.5C 117.634,122.708 117.301,121.042 116.5,119.5 Z"/></g>
<g><path style="opacity:1" fill="#009afd" d="M 155.5,121.5 C 155.842,120.662 156.508,120.328 157.5,120.5C 171.209,119.852 184.542,120.519 197.5,122.5C 197.5,122.833 197.5,123.167 197.5,123.5C 195.007,127.513 193.34,132.013 192.5,137C 182.833,137.667 173.167,137.667 163.5,137C 162.449,133.886 160.283,132.053 157,131.5C 156.821,127.975 156.321,124.641 155.5,121.5 Z"/></g>
<g><path style="opacity:0.792" fill="#78d0f1" d="M 108.5,121.5 C 111.247,121.187 113.914,121.52 116.5,122.5C 114.647,123.76 112.814,123.76 111,122.5C 109.731,123.905 109.231,125.571 109.5,127.5C 111.167,127.5 112.833,127.5 114.5,127.5C 115.338,127.842 115.672,128.508 115.5,129.5C 113.833,129.5 112.167,129.5 110.5,129.5C 110.5,131.167 110.5,132.833 110.5,134.5C 112.735,134.205 114.735,134.539 116.5,135.5C 113.77,136.817 110.937,136.817 108,135.5C 107.501,131.179 107.334,126.846 107.5,122.5C 107.5,121.833 107.833,121.5 108.5,121.5 Z"/></g>
<g><path style="opacity:0.235" fill="#1f97e0" d="M 113.5,119.5 C 114.5,119.5 115.5,119.5 116.5,119.5C 117.301,121.042 117.634,122.708 117.5,124.5C 115.692,124.491 114.025,124.991 112.5,126C 113.416,126.278 114.082,126.778 114.5,127.5C 112.833,127.5 111.167,127.5 109.5,127.5C 109.231,125.571 109.731,123.905 111,122.5C 112.814,123.76 114.647,123.76 116.5,122.5C 113.914,121.52 111.247,121.187 108.5,121.5C 110.167,120.833 111.833,120.167 113.5,119.5 Z"/></g>
<g><path style="opacity:1" fill="#1994e2" d="M 150.5,119.5 C 152.833,119.5 155.167,119.5 157.5,119.5C 157.5,119.833 157.5,120.167 157.5,120.5C 156.508,120.328 155.842,120.662 155.5,121.5C 154.209,121.263 153.209,121.596 152.5,122.5C 152.5,123.833 152.5,125.167 152.5,126.5C 152.5,129.833 152.5,133.167 152.5,136.5C 155.5,136.5 158.5,136.5 161.5,136.5C 161.611,137.117 161.944,137.617 162.5,138C 159.964,138.186 157.631,138.686 155.5,139.5C 154.5,139.5 153.5,139.5 152.5,139.5C 152.167,138.833 151.833,138.167 151.5,137.5C 150.575,131.409 150.241,125.409 150.5,119.5 Z"/></g>
<g><path style="opacity:0.812" fill="#99eaf9" d="M 152.5,122.5 C 153.586,122.62 154.253,123.287 154.5,124.5C 154.253,125.713 153.586,126.38 152.5,126.5C 152.5,125.167 152.5,123.833 152.5,122.5 Z"/></g>
<g><path style="opacity:0.541" fill="#6cc8ed" d="M 152.5,122.5 C 153.209,121.596 154.209,121.263 155.5,121.5C 155.335,125.182 155.501,128.848 156,132.5C 157.441,133.26 158.941,133.926 160.5,134.5C 161.298,134.957 161.631,135.624 161.5,136.5C 158.5,136.5 155.5,136.5 152.5,136.5C 152.5,133.167 152.5,129.833 152.5,126.5C 153.586,126.38 154.253,125.713 154.5,124.5C 154.253,123.287 153.586,122.62 152.5,122.5 Z"/></g>
<g><path style="opacity:0.984" fill="#47a9db" d="M 115.5,129.5 C 114.432,130.434 113.099,130.768 111.5,130.5C 111.5,131.5 111.5,132.5 111.5,133.5C 114.082,133.025 116.082,133.692 117.5,135.5C 117.167,135.5 116.833,135.5 116.5,135.5C 114.735,134.539 112.735,134.205 110.5,134.5C 110.5,132.833 110.5,131.167 110.5,129.5C 112.167,129.5 113.833,129.5 115.5,129.5 Z"/></g>
<g><path style="opacity:1" fill="#0d8ee7" d="M 50.5,118.5 C 58.3159,119.492 66.3159,119.826 74.5,119.5C 73.5872,125.441 73.2539,131.441 73.5,137.5C 84.5,137.5 95.5,137.5 106.5,137.5C 106.179,132.305 106.513,127.305 107.5,122.5C 107.334,126.846 107.501,131.179 108,135.5C 110.937,136.817 113.77,136.817 116.5,135.5C 116.833,135.5 117.167,135.5 117.5,135.5C 128.451,137.478 139.784,138.144 151.5,137.5C 151.833,138.167 152.167,138.833 152.5,139.5C 116.498,139.667 80.4985,139.5 44.5,139C 43.19,132.556 43.19,126.056 44.5,119.5C 46.4086,118.652 48.4086,118.318 50.5,118.5 Z"/></g>
<g><path style="opacity:1" fill="#a6eefa" d="M 70.5,135.5 C 70.44,136.043 70.1067,136.376 69.5,136.5C 68.5344,134.604 68.2011,132.604 68.5,130.5C 66.7354,129.539 64.7354,129.205 62.5,129.5C 61.443,133.523 61.2763,131.523 62,123.5C 62.21,125.058 62.71,126.391 63.5,127.5C 65.1667,127.5 66.8333,127.5 68.5,127.5C 69.3019,126.048 69.8019,124.382 70,122.5C 70.499,126.821 70.6657,131.154 70.5,135.5 Z"/></g>
<g><path style="opacity:1" fill="#81d7f4" d="M 70.5,135.5 C 70.6657,131.154 70.499,126.821 70,122.5C 69.8019,124.382 69.3019,126.048 68.5,127.5C 68.5,125.5 68.5,123.5 68.5,121.5C 69.5,121.5 70.5,121.5 71.5,121.5C 71.8195,126.363 71.4861,131.03 70.5,135.5 Z"/></g>
<g><path style="opacity:1" fill="#88d9f2" d="M 63.5,127.5 C 62.71,126.391 62.21,125.058 62,123.5C 61.2763,131.523 61.443,133.523 62.5,129.5C 64.7354,129.205 66.7354,129.539 68.5,130.5C 66.8333,130.5 65.1667,130.5 63.5,130.5C 63.9492,132.977 63.2825,134.977 61.5,136.5C 60.1977,131.615 60.1977,126.782 61.5,122C 61.8333,121.833 62.1667,121.667 62.5,121.5C 63.4656,123.396 63.7989,125.396 63.5,127.5 Z"/></g>
<g><path style="opacity:1" fill="#009afd" d="M 47.5,120.5 C 51.1064,120.211 54.6064,120.544 58,121.5C 58.8037,126.751 58.637,131.918 57.5,137C 53.9085,137.789 50.4085,137.622 47,136.5C 46.2185,131.083 46.3852,125.75 47.5,120.5 Z"/></g>
<g><path style="opacity:1" fill="#0c8ee7" d="M 337.5,118.5 C 345.174,118.334 352.841,118.5 360.5,119C 361.833,125.667 361.833,132.333 360.5,139C 292.167,139.5 223.834,139.667 155.5,139.5C 157.631,138.686 159.964,138.186 162.5,138C 161.944,137.617 161.611,137.117 161.5,136.5C 161.631,135.624 161.298,134.957 160.5,134.5C 158.941,133.926 157.441,133.26 156,132.5C 155.501,128.848 155.335,125.182 155.5,121.5C 156.321,124.641 156.821,127.975 157,131.5C 160.283,132.053 162.449,133.886 163.5,137C 173.167,137.667 182.833,137.667 192.5,137C 193.34,132.013 195.007,127.513 197.5,123.5C 197.5,123.833 197.5,124.167 197.5,124.5C 196.5,128.5 195.5,132.5 194.5,136.5C 196.179,136.715 197.179,136.048 197.5,134.5C 199.117,133.962 200.784,133.629 202.5,133.5C 202.263,134.791 202.596,135.791 203.5,136.5C 204.5,136.5 205.5,136.5 206.5,136.5C 206.5,135.5 206.5,134.5 206.5,133.5C 206.007,131.194 205.674,128.861 205.5,126.5C 207.217,129.845 207.884,133.511 207.5,137.5C 218.167,137.5 228.833,137.5 239.5,137.5C 239.807,131.907 239.473,126.407 238.5,121C 232.667,120.833 226.833,120.667 221,120.5C 214.793,120.504 208.96,121.171 203.5,122.5C 201.451,121.359 199.451,121.359 197.5,122.5C 184.542,120.519 171.209,119.852 157.5,120.5C 157.5,120.167 157.5,119.833 157.5,119.5C 185.5,119.5 213.5,119.5 241.5,119.5C 240.545,125.409 240.211,131.409 240.5,137.5C 243.877,137.932 246.877,137.265 249.5,135.5C 253.425,131.129 253.425,126.796 249.5,122.5C 248.306,121.728 247.306,120.728 246.5,119.5C 277.005,119.831 307.338,119.498 337.5,118.5 Z"/></g>
<g><path style="opacity:1" fill="#2497db" d="M 241.5,119.5 C 243.167,119.5 244.833,119.5 246.5,119.5C 247.306,120.728 248.306,121.728 249.5,122.5C 246.873,121.908 244.206,121.575 241.5,121.5C 241.5,126.5 241.5,131.5 241.5,136.5C 244.206,136.425 246.873,136.092 249.5,135.5C 246.877,137.265 243.877,137.932 240.5,137.5C 240.211,131.409 240.545,125.409 241.5,119.5 Z"/></g>
<g><path style="opacity:1" fill="#a5ecf9" d="M 291.5,121.5 C 299.281,122.091 301.615,126.091 298.5,133.5C 292.236,138.477 288.569,136.977 287.5,129C 287.43,125.634 288.763,123.134 291.5,121.5 Z"/></g>
<g><path style="opacity:1" fill="#38a0de" d="M 290.5,132.5 C 295.328,132.615 296.661,130.448 294.5,126C 293.207,125.51 291.873,125.343 290.5,125.5C 294.757,122.319 297.09,123.486 297.5,129C 297.503,131.827 296.17,133.66 293.5,134.5C 291.962,134.547 290.962,133.88 290.5,132.5 Z"/></g>
<g><path style="opacity:1" fill="#0c97f0" d="M 290.5,125.5 C 291.873,125.343 293.207,125.51 294.5,126C 296.661,130.448 295.328,132.615 290.5,132.5C 290.5,130.167 290.5,127.833 290.5,125.5 Z"/></g>
<g><path style="opacity:1" fill="#97e3f7" d="M 206.5,133.5 C 206.5,134.5 206.5,135.5 206.5,136.5C 205.5,136.5 204.5,136.5 203.5,136.5C 203.938,132.092 201.938,130.425 197.5,131.5C 197.5,132.5 197.5,133.5 197.5,134.5C 197.179,136.048 196.179,136.715 194.5,136.5C 195.5,132.5 196.5,128.5 197.5,124.5C 199.036,126.025 200.036,128.025 200.5,130.5C 201.314,128.234 201.814,125.9 202,123.5C 203.232,127.061 204.732,130.394 206.5,133.5 Z"/></g>
<g><path style="opacity:1" fill="#3aa0dc" d="M 203.5,136.5 C 202.596,135.791 202.263,134.791 202.5,133.5C 200.784,133.629 199.117,133.962 197.5,134.5C 197.5,133.5 197.5,132.5 197.5,131.5C 201.938,130.425 203.938,132.092 203.5,136.5 Z"/></g>
<g><path style="opacity:1" fill="#a1eaf9" d="M 249.5,122.5 C 253.425,126.796 253.425,131.129 249.5,135.5C 246.873,136.092 244.206,136.425 241.5,136.5C 241.5,131.5 241.5,126.5 241.5,121.5C 244.206,121.575 246.873,121.908 249.5,122.5 Z"/></g>
<g><path style="opacity:1" fill="#1396e9" d="M 248.5,132.5 C 247.791,133.404 246.791,133.737 245.5,133.5C 244.527,131.052 244.194,128.385 244.5,125.5C 245.822,125.33 246.989,125.663 248,126.5C 248.495,128.473 248.662,130.473 248.5,132.5 Z"/></g>
<g><path style="opacity:0.996" fill="#3a9fd6" d="M 248.5,132.5 C 248.662,130.473 248.495,128.473 248,126.5C 246.989,125.663 245.822,125.33 244.5,125.5C 244.194,128.385 244.527,131.052 245.5,133.5C 245.44,134.043 245.107,134.376 244.5,134.5C 243.167,130.833 243.167,127.167 244.5,123.5C 249.416,124.884 250.749,127.884 248.5,132.5 Z"/></g>
<g><path style="opacity:1" fill="#38a1de" d="M 203.5,122.5 C 203.989,123.995 204.655,125.329 205.5,126.5C 205.674,128.861 206.007,131.194 206.5,133.5C 204.732,130.394 203.232,127.061 202,123.5C 201.814,125.9 201.314,128.234 200.5,130.5C 200.036,128.025 199.036,126.025 197.5,124.5C 197.5,124.167 197.5,123.833 197.5,123.5C 197.5,123.167 197.5,122.833 197.5,122.5C 199.451,121.359 201.451,121.359 203.5,122.5 Z"/></g>
<g><path style="opacity:1" fill="#019afc" d="M 335.5,132.5 C 333.871,134.196 334.204,135.196 336.5,135.5C 344.336,139.007 347.003,136.34 344.5,127.5C 345.219,125.236 345.552,122.903 345.5,120.5C 350.099,120.2 354.599,120.533 359,121.5C 359.806,127.084 359.639,132.584 358.5,138C 338.5,138.667 318.5,138.667 298.5,138C 300.027,135.243 300.693,132.243 300.5,129C 300.445,126.443 300.112,123.943 299.5,121.5C 311.167,120.167 322.833,120.167 334.5,121.5C 332.904,125.038 333.571,128.038 336.5,130.5C 336.137,131.183 335.804,131.85 335.5,132.5 Z"/></g>
<g><path style="opacity:1" fill="#299ae0" d="M 343.5,124.5 C 343.263,125.791 343.596,126.791 344.5,127.5C 347.003,136.34 344.336,139.007 336.5,135.5C 341.901,137.881 344.401,136.215 344,130.5C 341.438,129.273 339.272,127.606 337.5,125.5C 337.47,124.503 337.97,123.836 339,123.5C 340.44,124.148 341.94,124.481 343.5,124.5 Z"/></g>
<g><path style="opacity:1" fill="#a5ecf9" d="M 335.5,124.5 C 336.167,124.833 336.833,125.167 337.5,125.5C 339.272,127.606 341.438,129.273 344,130.5C 344.401,136.215 341.901,137.881 336.5,135.5C 334.204,135.196 333.871,134.196 335.5,132.5C 337.03,133.067 338.53,133.733 340,134.5C 341.706,133.692 342.539,132.359 342.5,130.5C 338.307,130.638 335.973,128.638 335.5,124.5 Z"/></g>
<g><path style="opacity:1" fill="#6ec9ef" d="M 343.5,124.5 C 341.94,124.481 340.44,124.148 339,123.5C 337.97,123.836 337.47,124.503 337.5,125.5C 336.833,125.167 336.167,124.833 335.5,124.5C 337.486,121.669 340.152,121.003 343.5,122.5C 344.773,123.257 344.773,123.923 343.5,124.5 Z"/></g>
<g><path style="opacity:1" fill="#009afd" d="M 251.5,120.5 C 263.5,120.5 275.5,120.5 287.5,120.5C 287.488,123.688 286.488,126.522 284.5,129C 285.178,131.997 286.178,134.83 287.5,137.5C 275.5,137.5 263.5,137.5 251.5,137.5C 252.885,134.741 253.552,131.741 253.5,128.5C 253.08,125.721 252.413,123.055 251.5,120.5 Z"/></g>
<g><path style="opacity:1" fill="#009afd" d="M 205.5,126.5 C 204.655,125.329 203.989,123.995 203.5,122.5C 208.96,121.171 214.793,120.504 221,120.5C 226.833,120.667 232.667,120.833 238.5,121C 239.473,126.407 239.807,131.907 239.5,137.5C 228.833,137.5 218.167,137.5 207.5,137.5C 207.884,133.511 207.217,129.845 205.5,126.5 Z"/></g>
</svg>
