<?xml version="1.0" encoding="UTF-8"?>
<!DOCTYPE svg PUBLIC "-//W3C//DTD SVG 1.1//EN" "http://www.w3.org/Graphics/SVG/1.1/DTD/svg11.dtd">
<svg xmlns="http://www.w3.org/2000/svg" version="1.1" width="374px" height="157px" style="shape-rendering:geometricPrecision; text-rendering:geometricPrecision; image-rendering:optimizeQuality; fill-rule:evenodd; clip-rule:evenodd" xmlns:xlink="http://www.w3.org/1999/xlink">
<g><path style="opacity:0.22" fill="#84b3fb" d="M 82.5,7.5 C 73.61,5.73814 64.61,5.07148 55.5,5.5C 59.0024,4.69388 62.669,4.02722 66.5,3.5C 72.2131,3.86475 77.5465,5.19808 82.5,7.5 Z"/></g>
<g><path style="opacity:0.485" fill="#95bcfb" d="M 162.5,6.5 C 153.087,4.93471 143.753,5.26804 134.5,7.5C 139.271,5.11494 144.437,4.11494 150,4.5C 154.442,4.32589 158.609,4.99256 162.5,6.5 Z"/></g>
<g><path style="opacity:0.345" fill="#81b3fb" d="M 268.5,5.5 C 259.167,5.5 249.833,5.5 240.5,5.5C 244.565,4.80674 248.732,4.14007 253,3.5C 258.188,3.6883 263.355,4.35496 268.5,5.5 Z"/></g>
<g><path style="opacity:0.478" fill="#87b5fb" d="M 326.5,5.5 C 321.5,5.5 316.5,5.5 311.5,5.5C 316.549,3.30995 321.549,3.30995 326.5,5.5 Z"/></g>
<g><path style="opacity:1" fill="#f5f8fe" d="M 55.5,5.5 C 64.61,5.07148 73.61,5.73814 82.5,7.5C 95.2604,12.6904 99.7604,22.0237 96,35.5C 95.0041,37.6605 93.5041,39.3272 91.5,40.5C 88.7628,40.5987 86.0961,40.2653 83.5,39.5C 82.5,39.1667 81.8333,38.5 81.5,37.5C 81.3802,33.9582 81.7135,30.4582 82.5,27C 82.4753,25.124 81.8086,23.624 80.5,22.5C 70.6177,16.0642 60.6177,15.8975 50.5,22C 47.6403,25.6814 46.8069,29.8481 48,34.5C 50.4057,38.4085 53.5724,41.4085 57.5,43.5C 58.7804,44.9313 60.4471,45.5979 62.5,45.5C 68.8274,47.602 74.8274,50.2687 80.5,53.5C 80.8212,55.0481 81.8212,55.7148 83.5,55.5C 85.1667,56.5 86.5,57.8333 87.5,59.5C 87.7376,61.4044 88.7376,62.7377 90.5,63.5C 90.9111,67.2215 91.5778,70.8881 92.5,74.5C 92.0351,87.6342 85.3684,95.6342 72.5,98.5C 69.5718,98.5651 66.9052,99.2318 64.5,100.5C 58.734,101.804 53.0673,101.804 47.5,100.5C 44.0935,98.9257 40.4268,97.9257 36.5,97.5C 36.1667,97.5 35.8333,97.5 35.5,97.5C 35.0269,96.0937 34.0269,95.427 32.5,95.5C 31.7377,93.7376 30.4044,92.7376 28.5,92.5C 25.9493,90.4223 24.116,87.7556 23,84.5C 22.3333,80.1667 22.3333,75.8333 23,71.5C 23.2233,69.1192 24.39,67.4525 26.5,66.5C 29.0961,65.7347 31.7628,65.4013 34.5,65.5C 36.5,65.5 37.5,66.5 37.5,68.5C 37.1818,73.0323 37.5151,77.3656 38.5,81.5C 38.5,82.1667 38.8333,82.5 39.5,82.5C 39.5,84.5 40.5,85.5 42.5,85.5C 42.8333,85.5 43.1667,85.5 43.5,85.5C 44.5521,87.256 46.2188,87.9227 48.5,87.5C 48.8333,87.5 49.1667,87.5 49.5,87.5C 54.5,88.8333 59.5,88.8333 64.5,87.5C 66.7128,86.2271 69.0462,85.2271 71.5,84.5C 73.8333,84.1667 75.1667,82.8333 75.5,80.5C 75.2627,79.209 75.596,78.209 76.5,77.5C 77.7944,75.32 77.4611,73.32 75.5,71.5C 73.8333,69.1667 71.8333,67.1667 69.5,65.5C 68.713,63.8958 67.3797,63.2291 65.5,63.5C 64.5084,63.6716 63.8417,63.3382 63.5,62.5C 62.3646,60.7868 60.698,60.1201 58.5,60.5C 57.5084,60.6716 56.8417,60.3382 56.5,59.5C 55.2196,58.0687 53.5529,57.4021 51.5,57.5C 49.1815,57.0075 47.1815,56.0075 45.5,54.5C 45.0269,53.0937 44.0269,52.427 42.5,52.5C 42.0269,51.0937 41.0269,50.427 39.5,50.5C 35.2528,47.9284 32.5862,44.2618 31.5,39.5C 31.5,35.1667 31.5,30.8333 31.5,26.5C 31.5,26.1667 31.5,25.8333 31.5,25.5C 32.404,24.791 32.7373,23.791 32.5,22.5C 32.6596,20.847 33.3263,19.5137 34.5,18.5C 36.2624,17.7377 37.2624,16.4044 37.5,14.5C 39.4044,14.2624 40.7377,13.2624 41.5,11.5C 43.0269,11.573 44.0269,10.9063 44.5,9.5C 47.8756,7.40473 51.5422,6.0714 55.5,5.5 Z"/></g>
<g><path style="opacity:1" fill="#f8fafe" d="M 162.5,6.5 C 168.195,8.00759 172.862,11.0076 176.5,15.5C 176.427,17.0269 177.094,18.0269 178.5,18.5C 180.588,20.3356 181.921,22.6689 182.5,25.5C 182.12,27.698 182.787,29.3646 184.5,30.5C 186.652,38.3085 186.986,46.3085 185.5,54.5C 183.55,58.8672 182.217,63.5338 181.5,68.5C 178.212,78.2182 172.545,86.3848 164.5,93C 161.46,95.2204 158.127,96.7204 154.5,97.5C 144.174,100.126 133.841,100.126 123.5,97.5C 123.027,96.0937 122.027,95.427 120.5,95.5C 119.508,95.6716 118.842,95.3382 118.5,94.5C 117.415,92.4131 115.749,91.0798 113.5,90.5C 113.262,88.5956 112.262,87.2623 110.5,86.5C 108.412,84.6644 107.079,82.3311 106.5,79.5C 106.741,77.1016 106.074,75.1016 104.5,73.5C 104.5,72.8333 104.5,72.1667 104.5,71.5C 104.5,63.8333 104.5,56.1667 104.5,48.5C 104.5,48.1667 104.5,47.8333 104.5,47.5C 106.074,44.0935 107.074,40.4268 107.5,36.5C 107.796,34.597 108.463,32.9303 109.5,31.5C 110.906,31.0269 111.573,30.0269 111.5,28.5C 111.328,27.5084 111.662,26.8417 112.5,26.5C 113.906,26.0269 114.573,25.0269 114.5,23.5C 116.262,22.7377 117.262,21.4044 117.5,19.5C 120.764,17.9059 123.431,15.5725 125.5,12.5C 127.027,12.573 128.027,11.9063 128.5,10.5C 128.842,9.66175 129.508,9.32842 130.5,9.5C 132.153,9.3404 133.486,8.67373 134.5,7.5C 143.753,5.26804 153.087,4.93471 162.5,6.5 Z M 143.5,19.5 C 148.214,19.3531 152.881,19.6864 157.5,20.5C 157.973,21.9063 158.973,22.573 160.5,22.5C 161.864,24.1911 163.197,25.8577 164.5,27.5C 164.66,29.153 165.326,30.4863 166.5,31.5C 166.851,35.6836 167.518,39.6836 168.5,43.5C 167.873,48.1408 167.54,52.8075 167.5,57.5C 166.549,58.9187 166.216,60.5853 166.5,62.5C 165.463,63.9303 164.796,65.597 164.5,67.5C 163.087,70.6612 161.42,73.6612 159.5,76.5C 158.094,76.9731 157.427,77.9731 157.5,79.5C 155.596,79.7376 154.262,80.7376 153.5,82.5C 151.181,82.9925 149.181,83.9925 147.5,85.5C 136.884,88.1864 128.884,84.853 123.5,75.5C 122.28,70.4217 121.28,65.4217 120.5,60.5C 120.5,60.1667 120.5,59.8333 120.5,59.5C 121.177,52.1767 122.51,44.8433 124.5,37.5C 125.674,36.4863 126.34,35.153 126.5,33.5C 127.338,33.1583 127.672,32.4916 127.5,31.5C 128.906,31.0269 129.573,30.0269 129.5,28.5C 133.52,24.4901 138.187,21.4901 143.5,19.5 Z"/></g>
<g><path style="opacity:0.475" fill="#8bb6fb" d="M 238.5,5.5 C 235.904,6.26535 233.237,6.59868 230.5,6.5C 232.487,5.65682 234.654,4.99015 237,4.5C 237.765,4.56993 238.265,4.90326 238.5,5.5 Z"/></g>
<g><path style="opacity:1" fill="#f8fafe" d="M 238.5,5.5 C 239.167,5.5 239.833,5.5 240.5,5.5C 249.833,5.5 259.167,5.5 268.5,5.5C 270.5,5.5 272.5,5.5 274.5,5.5C 276.607,6.46822 278.941,6.80155 281.5,6.5C 282.167,6.5 282.833,6.5 283.5,6.5C 285.265,7.46138 287.265,7.79472 289.5,7.5C 290.5,7.83333 291.167,8.5 291.5,9.5C 291.337,11.8568 291.503,14.1902 292,16.5C 292.717,15.9558 293.217,15.2891 293.5,14.5C 295.147,12.6736 297.147,11.3403 299.5,10.5C 301.027,10.573 302.027,9.90632 302.5,8.5C 303.209,7.59603 304.209,7.26269 305.5,7.5C 307.553,7.59794 309.22,6.93127 310.5,5.5C 310.833,5.5 311.167,5.5 311.5,5.5C 316.5,5.5 321.5,5.5 326.5,5.5C 326.833,5.5 327.167,5.5 327.5,5.5C 328.708,6.23411 330.041,6.56745 331.5,6.5C 331.833,6.5 332.167,6.5 332.5,6.5C 333.209,7.40397 334.209,7.73731 335.5,7.5C 335.833,7.5 336.167,7.5 336.5,7.5C 336.821,9.04814 337.821,9.71481 339.5,9.5C 339.973,10.9063 340.973,11.573 342.5,11.5C 345.167,12.8333 347.167,14.8333 348.5,17.5C 348.427,19.0269 349.094,20.0269 350.5,20.5C 352.008,22.1815 353.008,24.1815 353.5,26.5C 353.41,29.1522 354.076,31.4855 355.5,33.5C 356.026,44.9882 355.026,56.3215 352.5,67.5C 351.117,73.271 348.45,78.271 344.5,82.5C 343.094,82.9731 342.427,83.9731 342.5,85.5C 338.397,90.3855 333.397,94.0521 327.5,96.5C 325.62,96.2291 324.287,96.8958 323.5,98.5C 323.167,98.5 322.833,98.5 322.5,98.5C 314.868,99.3577 307.201,99.6911 299.5,99.5C 298.22,98.0687 296.553,97.4021 294.5,97.5C 292.847,97.3404 291.514,96.6737 290.5,95.5C 289.738,93.7376 288.404,92.7376 286.5,92.5C 285.833,92.5 285.5,92.1667 285.5,91.5C 285.167,90.5 284.5,89.8333 283.5,89.5C 279.301,85.7761 276.635,81.1094 275.5,75.5C 274.724,67.5246 274.39,59.5246 274.5,51.5C 274.205,49.2646 274.539,47.2646 275.5,45.5C 276.924,43.4855 277.59,41.1522 277.5,38.5C 277.98,35.5568 278.98,32.8902 280.5,30.5C 281.906,30.0269 282.573,29.0269 282.5,27.5C 282.328,26.5084 282.662,25.8417 283.5,25.5C 284.906,25.0269 285.573,24.0269 285.5,22.5C 286.627,21.8783 287.627,21.045 288.5,20C 283.177,19.5006 277.844,19.334 272.5,19.5C 272.167,19.5 271.833,19.5 271.5,19.5C 263.684,18.5076 255.684,18.1743 247.5,18.5C 247.5,20.1667 247.5,21.8333 247.5,23.5C 247.5,24.1667 247.5,24.8333 247.5,25.5C 246.631,27.717 246.298,30.0504 246.5,32.5C 245.873,37.1408 245.54,41.8075 245.5,46.5C 252.321,47.3285 259.321,47.8285 266.5,48C 268.32,48.2004 269.653,49.0337 270.5,50.5C 270.5,52.8333 270.5,55.1667 270.5,57.5C 270.043,59.7727 268.71,61.106 266.5,61.5C 258.833,61.5 251.167,61.5 243.5,61.5C 243.5,62.5 243.5,63.5 243.5,64.5C 243.5,65.1667 243.5,65.8333 243.5,66.5C 241.801,71.6344 240.468,76.9678 239.5,82.5C 239.245,84.9674 238.245,86.9674 236.5,88.5C 235.094,88.9731 234.427,89.9731 234.5,91.5C 232.225,95.3073 228.892,97.6407 224.5,98.5C 222.447,98.4021 220.78,99.0687 219.5,100.5C 215.399,101.791 211.399,101.791 207.5,100.5C 205.401,99.3882 203.067,98.7215 200.5,98.5C 200.167,98.5 199.833,98.5 199.5,98.5C 199.027,97.0937 198.027,96.427 196.5,96.5C 196.027,95.0937 195.027,94.427 193.5,94.5C 192.5,92.8333 191.167,91.5 189.5,90.5C 185.522,86.5803 185.522,82.5803 189.5,78.5C 191.299,77.2121 192.965,77.2121 194.5,78.5C 194.856,80.1898 195.856,81.1898 197.5,81.5C 199.167,82.5 200.5,83.8333 201.5,85.5C 201.821,87.0481 202.821,87.7148 204.5,87.5C 208.818,88.7537 213.152,88.7537 217.5,87.5C 220.167,86.8333 221.833,85.1667 222.5,82.5C 224.299,77.6368 225.633,72.6368 226.5,67.5C 227.461,65.7354 227.795,63.7354 227.5,61.5C 224.833,61.5 222.167,61.5 219.5,61.5C 218.833,60.1667 217.833,59.1667 216.5,58.5C 216.448,56.0971 216.781,53.7638 217.5,51.5C 218.911,49.461 220.911,48.461 223.5,48.5C 225.5,48.5 227.5,48.5 229.5,48.5C 229.5,47.1667 229.5,45.8333 229.5,44.5C 229.517,42.4352 229.85,40.4352 230.5,38.5C 231.34,33.1694 232.006,27.6694 232.5,22C 232.167,20.8333 231.833,19.6667 231.5,18.5C 229.343,19.0505 227.343,19.7171 225.5,20.5C 221.57,21.0871 217.903,22.4205 214.5,24.5C 213.167,24.5 212.5,25.1667 212.5,26.5C 211.612,29.0545 211.279,31.7212 211.5,34.5C 211.963,37.4824 212.296,40.4824 212.5,43.5C 212.158,44.3382 211.492,44.6716 210.5,44.5C 208.784,44.6287 207.117,44.962 205.5,45.5C 203.544,44.5082 201.544,43.5082 199.5,42.5C 196.037,36.0486 195.703,29.3819 198.5,22.5C 199.906,22.0269 200.573,21.0269 200.5,19.5C 200.5,18.8333 200.833,18.5 201.5,18.5C 203.167,17.5 204.5,16.1667 205.5,14.5C 207.027,14.573 208.027,13.9063 208.5,12.5C 209.514,11.3263 210.847,10.6596 212.5,10.5C 214.698,10.8799 216.365,10.2132 217.5,8.5C 217.833,8.5 218.167,8.5 218.5,8.5C 222.078,8.45123 225.411,7.78457 228.5,6.5C 229.167,6.5 229.833,6.5 230.5,6.5C 233.237,6.59868 235.904,6.26535 238.5,5.5 Z M 325.5,19.5 C 326.514,20.6737 327.847,21.3404 329.5,21.5C 330.833,23.5 332.5,25.1667 334.5,26.5C 340.175,42.3792 339.508,58.0459 332.5,73.5C 331.094,73.9731 330.427,74.9731 330.5,76.5C 328.5,77.8333 326.833,79.5 325.5,81.5C 324.29,81.9321 323.29,82.5987 322.5,83.5C 316.324,86.0053 309.99,86.6719 303.5,85.5C 302.71,84.5987 301.71,83.9321 300.5,83.5C 299.167,81.5 297.5,79.8333 295.5,78.5C 294.736,75.9823 293.736,73.649 292.5,71.5C 291.059,61.4426 291.393,51.4426 293.5,41.5C 294.404,40.791 294.737,39.791 294.5,38.5C 295.674,37.4863 296.34,36.153 296.5,34.5C 297.737,33.0351 298.737,31.3684 299.5,29.5C 300.906,29.0269 301.573,28.0269 301.5,26.5C 308.217,20.1535 316.217,17.8201 325.5,19.5 Z"/></g>
<g><path style="opacity:0.367" fill="#91bbfb" d="M 281.5,6.5 C 278.941,6.80155 276.607,6.46822 274.5,5.5C 274.56,4.95691 274.893,4.62358 275.5,4.5C 277.657,5.05045 279.657,5.71712 281.5,6.5 Z"/></g>
<g><path style="opacity:0.494" fill="#8fb9fb" d="M 327.5,5.5 C 328.962,4.52909 330.295,4.86242 331.5,6.5C 330.041,6.56745 328.708,6.23411 327.5,5.5 Z"/></g>
<g><path style="opacity:0.604" fill="#95bbfc" d="M 289.5,7.5 C 287.265,7.79472 285.265,7.46138 283.5,6.5C 283.56,5.95691 283.893,5.62358 284.5,5.5C 286.336,6.02756 288.003,6.69423 289.5,7.5 Z"/></g>
<g><path style="opacity:0.11" fill="#6ca5fa" d="M 310.5,5.5 C 309.22,6.93127 307.553,7.59794 305.5,7.5C 306.78,6.06873 308.447,5.40206 310.5,5.5 Z"/></g>
<g><path style="opacity:0.608" fill="#8bb5fb" d="M 335.5,7.5 C 334.209,7.73731 333.209,7.40397 332.5,6.5C 332.435,6.06178 332.601,5.72845 333,5.5C 333.995,6.06594 334.828,6.73261 335.5,7.5 Z"/></g>
<g><path style="opacity:0.6" fill="#91b9fb" d="M 228.5,6.5 C 225.411,7.78457 222.078,8.45123 218.5,8.5C 221.521,7.31979 224.687,6.31979 228,5.5C 228.399,5.72845 228.565,6.06178 228.5,6.5 Z"/></g>
<g><path style="opacity:0.475" fill="#83b1fb" d="M 134.5,7.5 C 133.486,8.67373 132.153,9.3404 130.5,9.5C 131.287,7.89578 132.62,7.22911 134.5,7.5 Z"/></g>
<g><path style="opacity:0.875" fill="#a8c4fc" d="M 336.5,7.5 C 337.71,7.93205 338.71,8.59872 339.5,9.5C 337.821,9.71481 336.821,9.04814 336.5,7.5 Z"/></g>
<g><path style="opacity:0.741" fill="#99bdfb" d="M 217.5,8.5 C 216.365,10.2132 214.698,10.8799 212.5,10.5C 213.93,9.46253 215.597,8.79586 217.5,8.5 Z"/></g>
<g><path style="opacity:0.725" fill="#9cbffc" d="M 302.5,8.5 C 302.027,9.90632 301.027,10.573 299.5,10.5C 299.973,9.09368 300.973,8.42702 302.5,8.5 Z"/></g>
<g><path style="opacity:0.02" fill="#6fa6fa" d="M 339.5,9.5 C 341.027,9.42702 342.027,10.0937 342.5,11.5C 340.973,11.573 339.973,10.9063 339.5,9.5 Z"/></g>
<g><path style="opacity:0.729" fill="#a7c7fc" d="M 44.5,9.5 C 44.0269,10.9063 43.0269,11.573 41.5,11.5C 41.9731,10.0937 42.9731,9.42702 44.5,9.5 Z"/></g>
<g><path style="opacity:0.733" fill="#a0c1fc" d="M 128.5,10.5 C 128.027,11.9063 127.027,12.573 125.5,12.5C 125.973,11.0937 126.973,10.427 128.5,10.5 Z"/></g>
<g><path style="opacity:0.333" fill="#88b7fb" d="M 291.5,9.5 C 292.167,11.1667 292.833,12.8333 293.5,14.5C 293.217,15.2891 292.717,15.9558 292,16.5C 291.503,14.1902 291.337,11.8568 291.5,9.5 Z"/></g>
<g><path style="opacity:0.749" fill="#a7c5fc" d="M 41.5,11.5 C 40.7377,13.2624 39.4044,14.2624 37.5,14.5C 38.2623,12.7376 39.5956,11.7376 41.5,11.5 Z"/></g>
<g><path style="opacity:0.729" fill="#a9c7fc" d="M 208.5,12.5 C 208.027,13.9063 207.027,14.573 205.5,14.5C 205.973,13.0937 206.973,12.427 208.5,12.5 Z"/></g>
<g><path style="opacity:0.784" fill="#93b9fc" d="M 37.5,14.5 C 37.2624,16.4044 36.2624,17.7377 34.5,18.5C 34.7376,16.5956 35.7376,15.2623 37.5,14.5 Z"/></g>
<g><path style="opacity:0.455" fill="#94bbfb" d="M 205.5,14.5 C 204.5,16.1667 203.167,17.5 201.5,18.5C 201.833,16.1667 203.167,14.8333 205.5,14.5 Z"/></g>
<g><path style="opacity:0.733" fill="#a4c4fc" d="M 125.5,12.5 C 123.431,15.5725 120.764,17.9059 117.5,19.5C 119.569,16.4275 122.236,14.0941 125.5,12.5 Z"/></g>
<g><path style="opacity:0.6" fill="#95bbfb" d="M 176.5,15.5 C 177.906,15.9731 178.573,16.9731 178.5,18.5C 177.094,18.0269 176.427,17.0269 176.5,15.5 Z"/></g>
<g><path style="opacity:0.027" fill="#629ffa" d="M 143.5,19.5 C 145.304,18.838 147.304,18.5046 149.5,18.5C 152.527,18.2865 155.193,18.9532 157.5,20.5C 152.881,19.6864 148.214,19.3531 143.5,19.5 Z"/></g>
<g><path style="opacity:0.014" fill="#66a1fa" d="M 271.5,19.5 C 263.833,19.5 256.167,19.5 248.5,19.5C 248.768,21.099 248.434,22.4324 247.5,23.5C 247.5,21.8333 247.5,20.1667 247.5,18.5C 255.684,18.1743 263.684,18.5076 271.5,19.5 Z"/></g>
<g><path style="opacity:0.233" fill="#73aafa" d="M 272.5,19.5 C 277.844,19.334 283.177,19.5006 288.5,20C 287.627,21.045 286.627,21.8783 285.5,22.5C 281.427,20.8651 277.094,19.8651 272.5,19.5 Z"/></g>
<g><path style="opacity:0.231" fill="#81b0fb" d="M 348.5,17.5 C 349.906,17.9731 350.573,18.9731 350.5,20.5C 349.094,20.0269 348.427,19.0269 348.5,17.5 Z"/></g>
<g><path style="opacity:0.729" fill="#94bafc" d="M 117.5,19.5 C 117.262,21.4044 116.262,22.7377 114.5,23.5C 114.738,21.5956 115.738,20.2623 117.5,19.5 Z"/></g>
<g><path style="opacity:0.367" fill="#8db7fb" d="M 230.5,38.5 C 229.952,37.3115 229.619,36.1448 229.5,35C 230.315,30.2225 230.981,25.3891 231.5,20.5C 229.5,20.5 227.5,20.5 225.5,20.5C 227.343,19.7171 229.343,19.0505 231.5,18.5C 231.833,19.6667 232.167,20.8333 232.5,22C 232.006,27.6694 231.34,33.1694 230.5,38.5 Z"/></g>
<g><path style="opacity:0.153" fill="#69a4fa" d="M 325.5,19.5 C 327.38,19.2291 328.713,19.8958 329.5,21.5C 327.847,21.3404 326.514,20.6737 325.5,19.5 Z"/></g>
<g><path style="opacity:0.141" fill="#75aafb" d="M 157.5,20.5 C 159.027,20.427 160.027,21.0937 160.5,22.5C 158.973,22.573 157.973,21.9063 157.5,20.5 Z"/></g>
<g><path style="opacity:0.227" fill="#82b1fb" d="M 200.5,19.5 C 200.573,21.0269 199.906,22.0269 198.5,22.5C 198.427,20.9731 199.094,19.9731 200.5,19.5 Z"/></g>
<g><path style="opacity:0.51" fill="#85b3fb" d="M 329.5,21.5 C 332.167,22.1667 333.833,23.8333 334.5,26.5C 332.5,25.1667 330.833,23.5 329.5,21.5 Z"/></g>
<g><path style="opacity:0.635" fill="#95bcfb" d="M 32.5,22.5 C 32.7373,23.791 32.404,24.791 31.5,25.5C 31.0618,25.5654 30.7284,25.3988 30.5,25C 31.0659,24.0053 31.7326,23.172 32.5,22.5 Z"/></g>
<g><path style="opacity:0.004" fill="#5f9efa" d="M 214.5,24.5 C 214.167,25.5 213.5,26.1667 212.5,26.5C 212.5,25.1667 213.167,24.5 214.5,24.5 Z"/></g>
<g><path style="opacity:0.267" fill="#7caefa" d="M 285.5,22.5 C 285.573,24.0269 284.906,25.0269 283.5,25.5C 283.427,23.9731 284.094,22.9731 285.5,22.5 Z"/></g>
<g><path style="opacity:0.486" fill="#8db6fb" d="M 80.5,22.5 C 81.8086,23.624 82.4753,25.124 82.5,27C 81.7135,30.4582 81.3802,33.9582 81.5,37.5C 80.8157,32.5808 80.4824,27.5808 80.5,22.5 Z"/></g>
<g><path style="opacity:0.345" fill="#91b9fc" d="M 114.5,23.5 C 114.573,25.0269 113.906,26.0269 112.5,26.5C 112.427,24.9731 113.094,23.9731 114.5,23.5 Z"/></g>
<g><path style="opacity:0.606" fill="#a4c5fc" d="M 247.5,25.5 C 247.865,27.588 247.865,29.9213 247.5,32.5C 247.167,32.5 246.833,32.5 246.5,32.5C 246.298,30.0504 246.631,27.717 247.5,25.5 Z"/></g>
<g><path style="opacity:0.008" fill="#70a7fa" d="M 301.5,26.5 C 301.573,28.0269 300.906,29.0269 299.5,29.5C 299.427,27.9731 300.094,26.9731 301.5,26.5 Z"/></g>
<g><path style="opacity:0.863" fill="#aac7fc" d="M 182.5,25.5 C 183.931,26.7804 184.598,28.4471 184.5,30.5C 182.787,29.3646 182.12,27.698 182.5,25.5 Z"/></g>
<g><path style="opacity:0.012" fill="#71a7fa" d="M 129.5,28.5 C 129.573,30.0269 128.906,31.0269 127.5,31.5C 127.427,29.9731 128.094,28.9731 129.5,28.5 Z"/></g>
<g><path style="opacity:0.137" fill="#6aa4fa" d="M 164.5,27.5 C 166.104,28.287 166.771,29.6203 166.5,31.5C 165.326,30.4863 164.66,29.153 164.5,27.5 Z"/></g>
<g><path style="opacity:0.145" fill="#79abfb" d="M 282.5,27.5 C 282.573,29.0269 281.906,30.0269 280.5,30.5C 280.427,28.9731 281.094,27.9731 282.5,27.5 Z"/></g>
<g><path style="opacity:0.141" fill="#79abfb" d="M 111.5,28.5 C 111.573,30.0269 110.906,31.0269 109.5,31.5C 109.427,29.9731 110.094,28.9731 111.5,28.5 Z"/></g>
<g><path style="opacity:0.488" fill="#8ab6fb" d="M 31.5,26.5 C 31.5,30.8333 31.5,35.1667 31.5,39.5C 29.1266,35.1238 29.1266,30.7905 31.5,26.5 Z"/></g>
<g><path style="opacity:0.475" fill="#93bbfb" d="M 353.5,26.5 C 354.924,28.5145 355.59,30.8478 355.5,33.5C 354.076,31.4855 353.41,29.1522 353.5,26.5 Z"/></g>
<g><path style="opacity:0.255" fill="#7badfb" d="M 126.5,33.5 C 126.34,35.153 125.674,36.4863 124.5,37.5C 124.229,35.6203 124.896,34.287 126.5,33.5 Z"/></g>
<g><path style="opacity:0.255" fill="#7badfb" d="M 296.5,34.5 C 296.34,36.153 295.674,37.4863 294.5,38.5C 294.229,36.6203 294.896,35.287 296.5,34.5 Z"/></g>
<g><path style="opacity:0.011" fill="#5c9dfa" d="M 166.5,31.5 C 167.924,33.5145 168.59,35.8478 168.5,38.5C 168.5,40.1667 168.5,41.8333 168.5,43.5C 167.518,39.6836 166.851,35.6836 166.5,31.5 Z"/></g>
<g><path style="opacity:0.612" fill="#8bb6fb" d="M 107.5,36.5 C 107.074,40.4268 106.074,44.0935 104.5,47.5C 104.517,43.4661 105.517,39.7994 107.5,36.5 Z"/></g>
<g><path style="opacity:0.769" fill="#9cc0fc" d="M 211.5,34.5 C 214.29,37.43 214.623,40.43 212.5,43.5C 212.296,40.4824 211.963,37.4824 211.5,34.5 Z"/></g>
<g><path style="opacity:0.016" fill="#6ca4fa" d="M 83.5,39.5 C 86.0961,40.2653 88.7628,40.5987 91.5,40.5C 90.5514,41.1524 89.3847,41.4857 88,41.5C 85.9919,41.6932 84.4919,41.0265 83.5,39.5 Z"/></g>
<g><path style="opacity:0.341" fill="#7badfb" d="M 124.5,37.5 C 122.51,44.8433 121.177,52.1767 120.5,59.5C 120.334,55.1539 120.501,50.8206 121,46.5C 121.505,43.135 122.672,40.135 124.5,37.5 Z"/></g>
<g><path style="opacity:0.871" fill="#b1cdfd" d="M 199.5,42.5 C 201.544,43.5082 203.544,44.5082 205.5,45.5C 204.833,45.5 204.167,45.5 203.5,45.5C 201.596,45.2624 200.262,44.2624 199.5,42.5 Z"/></g>
<g><path style="opacity:0.22" fill="#88b4fb" d="M 57.5,43.5 C 59.5529,43.4021 61.2196,44.0687 62.5,45.5C 60.4471,45.5979 58.7804,44.9313 57.5,43.5 Z"/></g>
<g><path style="opacity:0.102" fill="#77abfa" d="M 246.5,32.5 C 246.833,32.5 247.167,32.5 247.5,32.5C 247.638,37.4141 246.972,42.0808 245.5,46.5C 245.54,41.8075 245.873,37.1408 246.5,32.5 Z"/></g>
<g><path style="opacity:0.015" fill="#5399fa" d="M 229.5,44.5 C 229.5,45.8333 229.5,47.1667 229.5,48.5C 227.5,48.5 225.5,48.5 223.5,48.5C 224.919,47.5489 226.585,47.2155 228.5,47.5C 228.263,46.209 228.596,45.209 229.5,44.5 Z"/></g>
<g><path style="opacity:0.616" fill="#a4c5fc" d="M 277.5,38.5 C 277.59,41.1522 276.924,43.4855 275.5,45.5C 275.41,42.8478 276.076,40.5145 277.5,38.5 Z"/></g>
<g><path style="opacity:0.028" fill="#6da4fa" d="M 210.5,44.5 C 208.345,46.534 206.012,46.8674 203.5,45.5C 204.167,45.5 204.833,45.5 205.5,45.5C 207.117,44.962 208.784,44.6287 210.5,44.5 Z"/></g>
<g><path style="opacity:0.023" fill="#7daefb" d="M 168.5,38.5 C 169.163,40.6413 169.497,42.9746 169.5,45.5C 169.589,49.761 168.922,53.761 167.5,57.5C 167.54,52.8075 167.873,48.1408 168.5,43.5C 168.5,41.8333 168.5,40.1667 168.5,38.5 Z"/></g>
<g><path style="opacity:0.486" fill="#9cc0fc" d="M 39.5,50.5 C 41.0269,50.427 42.0269,51.0937 42.5,52.5C 40.9731,52.573 39.9731,51.9063 39.5,50.5 Z"/></g>
<g><path style="opacity:0.349" fill="#9cc0fc" d="M 42.5,52.5 C 44.0269,52.427 45.0269,53.0937 45.5,54.5C 43.9731,54.573 42.9731,53.9063 42.5,52.5 Z"/></g>
<g><path style="opacity:0.633" fill="#a5c7fc" d="M 270.5,50.5 C 272.426,52.6265 272.426,54.9599 270.5,57.5C 270.5,55.1667 270.5,52.8333 270.5,50.5 Z"/></g>
<g><path style="opacity:0.859" fill="#abc7fc" d="M 80.5,53.5 C 81.7095,53.9321 82.7095,54.5987 83.5,55.5C 81.8212,55.7148 80.8212,55.0481 80.5,53.5 Z"/></g>
<g><path style="opacity:0.125" fill="#6fa7fb" d="M 217.5,51.5 C 216.781,53.7638 216.448,56.0971 216.5,58.5C 215.853,57.7261 215.52,56.7261 215.5,55.5C 215.34,53.6455 216.007,52.3121 217.5,51.5 Z"/></g>
<g><path style="opacity:0.116" fill="#74aafa" d="M 293.5,41.5 C 291.393,51.4426 291.059,61.4426 292.5,71.5C 290.983,67.4405 290.316,63.1071 290.5,58.5C 290.135,52.4597 291.135,46.7931 293.5,41.5 Z"/></g>
<g><path style="opacity:0.365" fill="#80b0fb" d="M 355.5,33.5 C 356.655,40.6549 356.822,47.9882 356,55.5C 355.431,59.7946 354.264,63.7946 352.5,67.5C 355.026,56.3215 356.026,44.9882 355.5,33.5 Z"/></g>
<g><path style="opacity:0.246" fill="#75abfa" d="M 274.5,51.5 C 274.39,59.5246 274.724,67.5246 275.5,75.5C 274.01,70.9229 273.344,66.0896 273.5,61C 273.502,57.6482 273.835,54.4815 274.5,51.5 Z"/></g>
<g><path style="opacity:0.118" fill="#72a9fb" d="M 51.5,57.5 C 53.5529,57.4021 55.2196,58.0687 56.5,59.5C 54.4471,59.5979 52.7804,58.9313 51.5,57.5 Z"/></g>
<g><path style="opacity:0.886" fill="#a9c7fc" d="M 58.5,60.5 C 60.698,60.1201 62.3646,60.7868 63.5,62.5C 61.597,62.2041 59.9303,61.5375 58.5,60.5 Z"/></g>
<g><path style="opacity:0.859" fill="#a3c4fc" d="M 87.5,59.5 C 89.2624,60.2623 90.2624,61.5956 90.5,63.5C 88.7376,62.7377 87.7376,61.4044 87.5,59.5 Z"/></g>
<g><path style="opacity:0.873" fill="#a4c4fc" d="M 104.5,48.5 C 104.5,56.1667 104.5,63.8333 104.5,71.5C 101.934,63.8491 101.934,56.1825 104.5,48.5 Z"/></g>
<g><path style="opacity:0.153" fill="#6aa5fa" d="M 216.5,58.5 C 217.833,59.1667 218.833,60.1667 219.5,61.5C 217.5,61.5 216.5,60.5 216.5,58.5 Z"/></g>
<g><path style="opacity:0.127" fill="#61a0f9" d="M 219.5,61.5 C 222.167,61.5 224.833,61.5 227.5,61.5C 227.795,63.7354 227.461,65.7354 226.5,67.5C 226.5,65.8333 226.5,64.1667 226.5,62.5C 223.941,62.8016 221.607,62.4682 219.5,61.5 Z"/></g>
<g><path style="opacity:0.129" fill="#65a3fa" d="M 266.5,61.5 C 258.745,61.9016 251.078,62.9016 243.5,64.5C 243.5,63.5 243.5,62.5 243.5,61.5C 251.167,61.5 258.833,61.5 266.5,61.5 Z"/></g>
<g><path style="opacity:0.349" fill="#88b4fb" d="M 185.5,54.5 C 185.077,59.5401 183.744,64.2068 181.5,68.5C 182.217,63.5338 183.55,58.8672 185.5,54.5 Z"/></g>
<g><path style="opacity:0.345" fill="#84b2fb" d="M 34.5,65.5 C 31.7628,65.4013 29.0961,65.7347 26.5,66.5C 27.4919,64.9735 28.9919,64.3068 31,64.5C 32.3847,64.5143 33.5514,64.8476 34.5,65.5 Z"/></g>
<g><path style="opacity:0.137" fill="#6aa4fa" d="M 65.5,63.5 C 67.3797,63.2291 68.713,63.8958 69.5,65.5C 67.847,65.3404 66.5137,64.6737 65.5,63.5 Z"/></g>
<g><path style="opacity:0.616" fill="#88b3fb" d="M 166.5,62.5 C 166.88,64.698 166.213,66.3646 164.5,67.5C 164.796,65.597 165.463,63.9303 166.5,62.5 Z"/></g>
<g><path style="opacity:0.74" fill="#aac7fc" d="M 90.5,63.5 C 92.8912,66.9626 93.5579,70.6292 92.5,74.5C 91.5778,70.8881 90.9111,67.2215 90.5,63.5 Z"/></g>
<g><path style="opacity:0.016" fill="#78abfa" d="M 243.5,66.5 C 243.397,72.2448 242.064,77.5781 239.5,82.5C 240.468,76.9678 241.801,71.6344 243.5,66.5 Z"/></g>
<g><path style="opacity:0.882" fill="#9cbefc" d="M 120.5,60.5 C 121.28,65.4217 122.28,70.4217 123.5,75.5C 122.21,74.9423 121.377,73.9423 121,72.5C 120.501,68.5138 120.334,64.5138 120.5,60.5 Z"/></g>
<g><path style="opacity:0.478" fill="#a1c4fc" d="M 75.5,71.5 C 77.4611,73.32 77.7944,75.32 76.5,77.5C 76.1667,75.5 75.8333,73.5 75.5,71.5 Z"/></g>
<g><path style="opacity:0.275" fill="#89b5fb" d="M 332.5,73.5 C 332.573,75.0269 331.906,76.0269 330.5,76.5C 330.427,74.9731 331.094,73.9731 332.5,73.5 Z"/></g>
<g><path style="opacity:0.486" fill="#93bbfb" d="M 104.5,73.5 C 106.074,75.1016 106.741,77.1016 106.5,79.5C 105.262,77.7857 104.595,75.7857 104.5,73.5 Z"/></g>
<g><path style="opacity:0.082" fill="#82b2fb" d="M 37.5,68.5 C 38.2485,69.531 38.9152,70.6976 39.5,72C 38.5495,75.0567 38.2161,78.2234 38.5,81.5C 37.5151,77.3656 37.1818,73.0323 37.5,68.5 Z"/></g>
<g><path style="opacity:0.271" fill="#7daffb" d="M 159.5,76.5 C 159.573,78.0269 158.906,79.0269 157.5,79.5C 157.427,77.9731 158.094,76.9731 159.5,76.5 Z"/></g>
<g><path style="opacity:0.749" fill="#b4cefd" d="M 330.5,76.5 C 329.833,79.1667 328.167,80.8333 325.5,81.5C 326.833,79.5 328.5,77.8333 330.5,76.5 Z"/></g>
<g><path style="opacity:0.631" fill="#88b4fb" d="M 295.5,78.5 C 297.5,79.8333 299.167,81.5 300.5,83.5C 297.833,82.8333 296.167,81.1667 295.5,78.5 Z"/></g>
<g><path style="opacity:0.376" fill="#85b4fb" d="M 157.5,79.5 C 156.738,81.2624 155.404,82.2624 153.5,82.5C 154.262,80.7376 155.596,79.7376 157.5,79.5 Z"/></g>
<g><path style="opacity:0.878" fill="#a5c4fc" d="M 194.5,78.5 C 196.5,78.5 197.5,79.5 197.5,81.5C 195.856,81.1898 194.856,80.1898 194.5,78.5 Z"/></g>
<g><path style="opacity:0.616" fill="#a2c3fc" d="M 75.5,80.5 C 75.1667,82.8333 73.8333,84.1667 71.5,84.5C 72.5,82.8333 73.8333,81.5 75.5,80.5 Z"/></g>
<g><path style="opacity:0.494" fill="#83b1fb" d="M 39.5,82.5 C 40.8333,83.1667 41.8333,84.1667 42.5,85.5C 40.5,85.5 39.5,84.5 39.5,82.5 Z"/></g>
<g><path style="opacity:0.141" fill="#76abfb" d="M 153.5,82.5 C 152.089,84.539 150.089,85.539 147.5,85.5C 149.181,83.9925 151.181,82.9925 153.5,82.5 Z"/></g>
<g><path style="opacity:0.024" fill="#71a7fa" d="M 344.5,82.5 C 344.573,84.0269 343.906,85.0269 342.5,85.5C 342.427,83.9731 343.094,82.9731 344.5,82.5 Z"/></g>
<g><path style="opacity:0.62" fill="#a3c4fc" d="M 222.5,82.5 C 221.833,85.1667 220.167,86.8333 217.5,87.5C 218.833,85.5 220.5,83.8333 222.5,82.5 Z"/></g>
<g><path style="opacity:0.882" fill="#abc8fc" d="M 300.5,83.5 C 301.71,83.9321 302.71,84.5987 303.5,85.5C 301.821,85.7148 300.821,85.0481 300.5,83.5 Z"/></g>
<g><path style="opacity:0.498" fill="#97bdfc" d="M 322.5,83.5 C 322.389,84.1174 322.056,84.6174 321.5,85C 315.409,87.9119 309.409,88.0786 303.5,85.5C 309.99,86.6719 316.324,86.0053 322.5,83.5 Z"/></g>
<g><path style="opacity:0.224" fill="#93bbfb" d="M 43.5,85.5 C 45.3057,86.0241 46.9724,86.6908 48.5,87.5C 46.2188,87.9227 44.5521,87.256 43.5,85.5 Z"/></g>
<g><path style="opacity:0.875" fill="#acc8fc" d="M 201.5,85.5 C 202.71,85.9321 203.71,86.5987 204.5,87.5C 202.821,87.7148 201.821,87.0481 201.5,85.5 Z"/></g>
<g><path style="opacity:0.223" fill="#8cb9fb" d="M 64.5,87.5 C 59.5,88.8333 54.5,88.8333 49.5,87.5C 54.4397,87.4545 59.4397,87.4545 64.5,87.5 Z"/></g>
<g><path style="opacity:0.024" fill="#7caefb" d="M 110.5,86.5 C 112.262,87.2623 113.262,88.5956 113.5,90.5C 111.738,89.7377 110.738,88.4044 110.5,86.5 Z"/></g>
<g><path style="opacity:0.012" fill="#71a8fa" d="M 236.5,88.5 C 236.573,90.0269 235.906,91.0269 234.5,91.5C 234.427,89.9731 235.094,88.9731 236.5,88.5 Z"/></g>
<g><path style="opacity:0.49" fill="#86b4fb" d="M 113.5,90.5 C 115.749,91.0798 117.415,92.4131 118.5,94.5C 116.251,93.9202 114.585,92.5869 113.5,90.5 Z"/></g>
<g><path style="opacity:0.012" fill="#77abfa" d="M 283.5,89.5 C 284.5,89.8333 285.167,90.5 285.5,91.5C 284.167,91.5 283.5,90.8333 283.5,89.5 Z"/></g>
<g><path style="opacity:0.004" fill="#7eaefa" d="M 189.5,90.5 C 191.167,91.5 192.5,92.8333 193.5,94.5C 191.167,94.1667 189.833,92.8333 189.5,90.5 Z"/></g>
<g><path style="opacity:0.486" fill="#9cc0fc" d="M 28.5,92.5 C 30.4044,92.7376 31.7377,93.7376 32.5,95.5C 30.5956,95.2624 29.2623,94.2624 28.5,92.5 Z"/></g>
<g><path style="opacity:0.49" fill="#97bdfb" d="M 286.5,92.5 C 288.404,92.7376 289.738,93.7376 290.5,95.5C 288.596,95.2624 287.262,94.2624 286.5,92.5 Z"/></g>
<g><path style="opacity:0.616" fill="#98befc" d="M 193.5,94.5 C 195.027,94.427 196.027,95.0937 196.5,96.5C 194.973,96.573 193.973,95.9063 193.5,94.5 Z"/></g>
<g><path style="opacity:0.157" fill="#75aafa" d="M 32.5,95.5 C 34.0269,95.427 35.0269,96.0937 35.5,97.5C 33.9731,97.573 32.9731,96.9063 32.5,95.5 Z"/></g>
<g><path style="opacity:0.153" fill="#7baefb" d="M 120.5,95.5 C 122.027,95.427 123.027,96.0937 123.5,97.5C 121.973,97.573 120.973,96.9063 120.5,95.5 Z"/></g>
<g><path style="opacity:0.741" fill="#95bbfb" d="M 36.5,97.5 C 40.4268,97.9257 44.0935,98.9257 47.5,100.5C 43.4661,100.483 39.7994,99.4835 36.5,97.5 Z"/></g>
<g><path style="opacity:0.153" fill="#76abfb" d="M 196.5,96.5 C 198.027,96.427 199.027,97.0937 199.5,98.5C 197.973,98.573 196.973,97.9063 196.5,96.5 Z"/></g>
<g><path style="opacity:0.027" fill="#6ea5fa" d="M 327.5,96.5 C 326.486,97.6737 325.153,98.3404 323.5,98.5C 324.287,96.8958 325.62,96.2291 327.5,96.5 Z"/></g>
<g><path style="opacity:0.133" fill="#7aaefb" d="M 294.5,97.5 C 296.553,97.4021 298.22,98.0687 299.5,99.5C 297.447,99.5979 295.78,98.9313 294.5,97.5 Z"/></g>
<g><path style="opacity:0.022" fill="#6ca5fa" d="M 72.5,98.5 C 70.1617,100.04 67.4951,100.706 64.5,100.5C 66.9052,99.2318 69.5718,98.5651 72.5,98.5 Z"/></g>
<g><path style="opacity:0.642" fill="#94bbfb" d="M 123.5,97.5 C 133.841,100.126 144.174,100.126 154.5,97.5C 144.189,102.825 133.856,102.825 123.5,97.5 Z"/></g>
<g><path style="opacity:0.161" fill="#76abfb" d="M 200.5,98.5 C 203.067,98.7215 205.401,99.3882 207.5,100.5C 204.772,100.829 202.438,100.163 200.5,98.5 Z"/></g>
<g><path style="opacity:0.029" fill="#65a1fa" d="M 224.5,98.5 C 223.22,99.9313 221.553,100.598 219.5,100.5C 220.78,99.0687 222.447,98.4021 224.5,98.5 Z"/></g>
<g><path style="opacity:0.651" fill="#87b4fb" d="M 322.5,98.5 C 314.933,101.774 307.266,102.108 299.5,99.5C 307.201,99.6911 314.868,99.3577 322.5,98.5 Z"/></g>
<g><path style="opacity:0.999" fill="#f5f8fe" d="M 147.5,117.5 C 149.607,118.468 151.941,118.802 154.5,118.5C 154.5,116.5 154.5,114.5 154.5,112.5C 155.486,116.97 155.819,121.637 155.5,126.5C 154.532,124.393 154.198,122.059 154.5,119.5C 151.941,119.198 149.607,119.532 147.5,120.5C 147.808,122.924 147.474,125.257 146.5,127.5C 145.167,122.167 145.167,116.833 146.5,111.5C 147.466,113.396 147.799,115.396 147.5,117.5 Z"/></g>
<g><path style="opacity:0.654" fill="#b9d5fc" d="M 154.5,112.5 C 154.56,111.957 154.893,111.624 155.5,111.5C 156.494,116.456 156.827,121.456 156.5,126.5C 156.167,126.5 155.833,126.5 155.5,126.5C 155.819,121.637 155.486,116.97 154.5,112.5 Z"/></g>
<g><path style="opacity:1" fill="#e7effe" d="M 160.5,112.5 C 163.187,112.336 165.854,112.503 168.5,113C 166.292,113.191 164.292,113.691 162.5,114.5C 162.5,115.5 162.5,116.5 162.5,117.5C 164.655,117.372 166.655,117.872 168.5,119C 168.272,119.399 167.938,119.565 167.5,119.5C 165.585,119.216 163.919,119.549 162.5,120.5C 162.5,121.833 162.5,123.167 162.5,124.5C 164.292,125.309 166.292,125.809 168.5,126C 165.854,126.497 163.187,126.664 160.5,126.5C 160.5,121.833 160.5,117.167 160.5,112.5 Z"/></g>
<g><path style="opacity:0.387" fill="#8ebafb" d="M 180.5,125.5 C 180.833,125.5 181.167,125.5 181.5,125.5C 181.842,126.338 182.508,126.672 183.5,126.5C 182.122,127.234 180.622,127.901 179,128.5C 176.333,127.833 173.667,127.167 171,126.5C 171.782,122.366 171.616,118.199 170.5,114C 171.032,111.98 172.365,111.147 174.5,111.5C 174.5,115.833 174.5,120.167 174.5,124.5C 176.735,124.205 178.735,124.539 180.5,125.5 Z"/></g>
<g><path style="opacity:1" fill="#fefffe" d="M 180.5,125.5 C 178.052,126.473 175.385,126.806 172.5,126.5C 172.334,121.821 172.501,117.155 173,112.5C 173.499,116.821 173.666,121.154 173.5,125.5C 175.833,125.5 178.167,125.5 180.5,125.5 Z"/></g>
<g><path style="opacity:1" fill="#e9f0fe" d="M 204.5,113.5 C 205.324,116.764 205.658,120.098 205.5,123.5C 204.075,125.031 203.409,124.698 203.5,122.5C 204.147,121.726 204.48,120.726 204.5,119.5C 204.66,117.645 203.993,116.312 202.5,115.5C 201.833,115.5 201.5,115.167 201.5,114.5C 200.167,113.167 198.833,113.167 197.5,114.5C 197.5,117.833 197.5,121.167 197.5,124.5C 198.833,125.167 200.167,125.833 201.5,126.5C 199.389,127.742 197.389,127.742 195.5,126.5C 195.5,124.833 195.5,123.167 195.5,121.5C 195.5,118.167 195.5,114.833 195.5,111.5C 198.754,111.207 201.754,111.874 204.5,113.5 Z M 197.5,114.5 C 198.964,115.405 200.298,115.405 201.5,114.5C 201.5,115.167 201.833,115.5 202.5,115.5C 202.993,117.806 203.326,120.139 203.5,122.5C 202.542,122.953 201.708,123.619 201,124.5C 199.855,123.316 198.688,123.316 197.5,124.5C 197.5,121.167 197.5,117.833 197.5,114.5 Z"/></g>
<g><path style="opacity:1" fill="#b9d1fd" d="M 220.5,115.5 C 218.797,114.34 218.131,115.007 218.5,117.5C 215.244,113.315 212.577,113.649 210.5,118.5C 210.649,117.448 210.483,116.448 210,115.5C 209.503,118.146 209.336,120.813 209.5,123.5C 206.263,119.522 206.929,115.689 211.5,112C 215.644,110.666 218.644,111.832 220.5,115.5 Z"/></g>
<g><path style="opacity:1" fill="#d7e4fd" d="M 231.5,114.5 C 229.833,113.167 228.167,113.167 226.5,114.5C 226.5,115.167 226.833,115.5 227.5,115.5C 228.976,117.5 230.809,119.167 233,120.5C 233.941,122.989 233.441,124.989 231.5,126.5C 229.5,126.5 227.5,126.5 225.5,126.5C 226.952,125.698 228.618,125.198 230.5,125C 231.791,123.708 231.791,122.542 230.5,121.5C 230.167,121.5 229.833,121.5 229.5,121.5C 228.101,120.11 226.434,119.11 224.5,118.5C 224.5,116.833 224.5,115.167 224.5,113.5C 227.603,110.681 230.603,110.848 233.5,114C 232.744,115.38 232.078,115.547 231.5,114.5 Z"/></g>
<g><path style="opacity:0.128" fill="#76abfb" d="M 160.5,112.5 C 163.287,111.523 166.287,111.19 169.5,111.5C 169.539,113.359 168.706,114.692 167,115.5C 165.612,115.786 164.112,115.452 162.5,114.5C 164.292,113.691 166.292,113.191 168.5,113C 165.854,112.503 163.187,112.336 160.5,112.5 Z"/></g>
<g><path style="opacity:0.361" fill="#7baefb" d="M 197.5,114.5 C 198.833,113.167 200.167,113.167 201.5,114.5C 200.298,115.405 198.964,115.405 197.5,114.5 Z"/></g>
<g><path style="opacity:0.124" fill="#7baefb" d="M 226.5,114.5 C 228.167,113.167 229.833,113.167 231.5,114.5C 230.167,114.833 228.833,115.167 227.5,115.5C 226.833,115.5 226.5,115.167 226.5,114.5 Z"/></g>
<g><path style="opacity:0.361" fill="#77abfb" d="M 224.5,113.5 C 224.5,115.167 224.5,116.833 224.5,118.5C 223.833,118.167 223.167,117.833 222.5,117.5C 222.229,115.62 222.896,114.287 224.5,113.5 Z"/></g>
<g><path style="opacity:1" fill="#e7effe" d="M 220.5,115.5 C 220.5,118.5 220.5,121.5 220.5,124.5C 219.167,124.5 218.5,123.833 218.5,122.5C 218.5,120.833 218.5,119.167 218.5,117.5C 218.131,115.007 218.797,114.34 220.5,115.5 Z"/></g>
<g><path style="opacity:0.254" fill="#77acfa" d="M 154.5,112.5 C 154.5,114.5 154.5,116.5 154.5,118.5C 151.941,118.802 149.607,118.468 147.5,117.5C 149.117,116.962 150.784,116.629 152.5,116.5C 152.229,114.62 152.896,113.287 154.5,112.5 Z"/></g>
<g><path style="opacity:0.51" fill="#9ac0fb" d="M 202.5,115.5 C 203.993,116.312 204.66,117.645 204.5,119.5C 204.48,120.726 204.147,121.726 203.5,122.5C 203.326,120.139 202.993,117.806 202.5,115.5 Z"/></g>
<g><path style="opacity:0.94" fill="#f1f6fe" d="M 96.5,117.5 C 110.829,118.117 125.495,118.783 140.5,119.5C 104.167,120.833 67.8333,120.833 31.5,119.5C 53.3295,118.833 74.9962,118.167 96.5,117.5 Z"/></g>
<g><path style="opacity:0.667" fill="#89b5fb" d="M 220.5,115.5 C 221.167,116.167 221.833,116.833 222.5,117.5C 221.637,118.94 221.637,120.274 222.5,121.5C 222.058,122.739 221.391,123.739 220.5,124.5C 220.5,121.5 220.5,118.5 220.5,115.5 Z"/></g>
<g><path style="opacity:0.935" fill="#f3f7fe" d="M 238.5,118.5 C 274.839,118.167 311.173,118.5 347.5,119.5C 329.333,119.833 311.167,120.167 293,120.5C 274.488,120.5 256.321,119.833 238.5,118.5 Z"/></g>
<g><path style="opacity:0.419" fill="#85b4fa" d="M 162.5,120.5 C 163.919,119.549 165.585,119.216 167.5,119.5C 166.252,121.69 164.586,122.023 162.5,120.5 Z"/></g>
<g><path style="opacity:0.266" fill="#82b3fb" d="M 147.5,120.5 C 149.607,119.532 151.941,119.198 154.5,119.5C 154.198,122.059 154.532,124.393 155.5,126.5C 155.833,126.5 156.167,126.5 156.5,126.5C 155.791,127.404 154.791,127.737 153.5,127.5C 153.662,125.473 153.495,123.473 153,121.5C 151.171,121.435 149.338,121.102 147.5,120.5 Z"/></g>
<g><path style="opacity:1" fill="#d0e0fd" d="M 192.5,123.5 C 192.557,124.609 192.89,125.609 193.5,126.5C 192.391,126.443 191.391,126.11 190.5,125.5C 190.737,124.209 190.404,123.209 189.5,122.5C 188.153,123.171 186.986,123.171 186,122.5C 185.066,123.858 184.232,125.192 183.5,126.5C 182.508,126.672 181.842,126.338 181.5,125.5C 182.635,120.764 183.968,116.097 185.5,111.5C 186.822,111.33 187.989,111.663 189,112.5C 190.325,116.139 191.492,119.806 192.5,123.5 Z"/></g>
<g><path style="opacity:0.382" fill="#8eb9fb" d="M 204.5,113.5 C 205.117,113.611 205.617,113.944 206,114.5C 206.805,117.696 206.638,120.696 205.5,123.5C 205.658,120.098 205.324,116.764 204.5,113.5 Z"/></g>
<g><path style="opacity:0.033" fill="#63a1fa" d="M 224.5,118.5 C 226.434,119.11 228.101,120.11 229.5,121.5C 227.405,121.937 225.738,120.937 224.5,118.5 Z"/></g>
<g><path style="opacity:0.041" fill="#5b9cfa" d="M 195.5,121.5 C 195.5,123.167 195.5,124.833 195.5,126.5C 194.833,126.5 194.167,126.5 193.5,126.5C 192.89,125.609 192.557,124.609 192.5,123.5C 193.117,123.611 193.617,123.944 194,124.5C 194.232,123.263 194.732,122.263 195.5,121.5 Z"/></g>
<g><path style="opacity:0.184" fill="#66a3fa" d="M 189.5,122.5 C 190.404,123.209 190.737,124.209 190.5,125.5C 188.519,124.895 188.185,123.895 189.5,122.5 Z"/></g>
<g><path style="opacity:1" fill="#acc8fc" d="M 203.5,122.5 C 203.409,124.698 204.075,125.031 205.5,123.5C 205.306,125.912 203.973,126.912 201.5,126.5C 200.167,125.833 198.833,125.167 197.5,124.5C 198.688,123.316 199.855,123.316 201,124.5C 201.708,123.619 202.542,122.953 203.5,122.5 Z"/></g>
<g><path style="opacity:0.914" fill="#c8dafd" d="M 210.5,118.5 C 210.981,121.455 212.481,123.789 215,125.5C 216.039,124.29 217.206,123.29 218.5,122.5C 218.5,123.833 219.167,124.5 220.5,124.5C 219.488,126.876 217.655,127.876 215,127.5C 211.867,127.858 210.033,126.525 209.5,123.5C 209.336,120.813 209.503,118.146 210,115.5C 210.483,116.448 210.649,117.448 210.5,118.5 Z"/></g>
<g><path style="opacity:1" fill="#aecbfc" d="M 230.5,121.5 C 231.791,122.542 231.791,123.708 230.5,125C 228.618,125.198 226.952,125.698 225.5,126.5C 223.535,126.052 223.202,125.052 224.5,123.5C 227.505,125.259 229.505,124.592 230.5,121.5 Z"/></g>
<g><path style="opacity:0.405" fill="#7fb1fb" d="M 160.5,112.5 C 160.5,117.167 160.5,121.833 160.5,126.5C 163.187,126.664 165.854,126.497 168.5,126C 166.292,125.809 164.292,125.309 162.5,124.5C 164.833,124.5 167.167,124.5 169.5,124.5C 169.853,126.635 169.02,127.968 167,128.5C 164.273,127.937 161.607,127.27 159,126.5C 158.833,124.167 158.667,121.833 158.5,119.5C 158.529,116.731 159.195,114.397 160.5,112.5 Z"/></g>
<g><path style="opacity:0.255" fill="#82b4fb" d="M 190.5,125.5 C 191.391,126.11 192.391,126.443 193.5,126.5C 192.053,127.885 191.053,127.552 190.5,125.5 Z"/></g>
<g><path style="opacity:0.541" fill="#90bafb" d="M 225.5,126.5 C 227.5,126.5 229.5,126.5 231.5,126.5C 231.189,127.478 230.522,128.145 229.5,128.5C 227.974,128.006 226.641,127.339 225.5,126.5 Z"/></g>
</svg>
